<?xml version="1.0" encoding="UTF-8"?><svg id="a" xmlns="http://www.w3.org/2000/svg" viewBox="0 0 116.12 44.01"><g id="b" transform="translate(0 0)"><path id="c" d="M34.34,11.42V30.77h-3.61c-4.27,0-4.14-3.09-4.14-3.09V8.2h3.89c3.98,0,3.86,3.23,3.86,3.23" style="fill:#fff;"/><path id="d" d="M39.65,30.77c-3.35,0-3.38-2.59-3.38-2.59V2.16h9.53l9.36,17.12V4.91c0-3.08,3.47-2.75,3.47-2.75h3.79V30.77h-8.69l-10.21-18.18V30.77h-3.87Z" style="fill:#fff;"/><path id="e" d="M93.39,24.15l-1.01,4.03s-.06,2.59-4.67,2.59h-4.04l7.82-25.16s.82-3.45,3.36-3.45h8.36l8.99,28.61h-4.45c-4.51,0-4.58-2.59-4.58-2.59l-1.27-4.03h-8.5Zm7.03-5.69l-1.39-5.14c-.45-1.61-1.03-3.95-1.48-5.65h-.09c-.45,1.7-.9,4.08-1.34,5.69l-1.3,5.1h5.59Z" style="fill:#fff;"/><path id="f" d="M34.6,3.62c0,2.04-1.61,3.65-4.16,3.65s-4.07-1.61-4.07-3.65S27.98,.02,30.48,.02s4.07,1.53,4.12,3.61" style="fill:#fff;"/><path id="g" d="M24.34,.06c-.56-.04-1.12-.06-1.68-.06C16.6-.13,10.73,2.14,6.33,6.31,2.17,10.54-.11,16.27,0,22.21c-.16,5.73,1.95,11.29,5.88,15.46,4.23,4.19,9.98,6.48,15.92,6.33,2.73,0,5.45-.4,8.06-1.2,3.21-1.16,4.51-2.79,4.51-5.23,0,0,0-5.97-.04-5.93-3.43,3.11-7.9,4.82-12.53,4.79-8.37,0-13.82-5.63-13.82-14.22S14.01,7.58,22.65,7.58c.56,0,1.13,.02,1.69,.08V.06Z" style="fill:#fff;"/><path id="h" d="M64.4,26.04c.27-1.36,1.59-2.24,2.95-1.97,.16,.03,.31,.08,.46,.14,1.68,.48,3.42,.74,5.17,.77,2.79,0,4.15-.9,4.15-2.35s-1.35-2.22-4.78-3.33c-5.14-1.71-8.51-4.4-8.51-8.67,0-5.08,4.5-9.01,12.16-9.01,2.87-.11,5.73,.34,8.42,1.33,0,0-.86,2.75-1.14,3.62-.39,1.41-1.84,2.25-3.26,1.86-.08-.02-.15-.04-.22-.07-1.27-.33-2.58-.48-3.89-.46-2.48,0-3.83,.86-3.83,2.14,0,1.45,1.62,2.05,5.45,3.42,5.45,1.88,7.93,4.66,7.93,8.67,0,4.96-4.1,9.23-12.97,9.23-3.11,.06-6.2-.5-9.1-1.63l1.02-3.68Z" style="fill:#fff;"/><path id="i" d="M114.28,31.79c1.02,0,1.84,.83,1.84,1.85s-.83,1.84-1.84,1.84c-1.02,0-1.84-.83-1.84-1.85,0-1.02,.82-1.84,1.84-1.84h0Zm0,.27c-.82,0-1.48,.67-1.48,1.49s.67,1.48,1.49,1.48h0c.82,0,1.48-.66,1.48-1.48s-.66-1.48-1.48-1.48h0Zm-.34,2.5h-.33v-1.95c.19-.03,.39-.05,.58-.05,.22-.02,.45,.04,.64,.15,.13,.09,.2,.24,.19,.4,0,.23-.17,.43-.4,.48v.02c.18,.03,.3,.19,.34,.47,.02,.17,.06,.33,.13,.48h-.34c-.08-.16-.12-.33-.14-.5-.05-.25-.18-.34-.45-.34h-.23v.84Zm0-1.08h.24c.27,0,.5-.09,.5-.34,0-.17-.13-.34-.5-.34-.08,0-.16,0-.24,.02v.66Z" style="fill:#fff;"/></g></svg>