<?xml version="1.0" encoding="UTF-8"?><svg id="a" xmlns="http://www.w3.org/2000/svg" viewBox="0 0 199.76 29.45"><g id="b"><path id="c" d="M197.51,25.46c.1,0,.2,.03,.28,.08,.07,.05,.12,.12,.14,.21,.02,.08,.02,.16,0,.24-.02,.08-.07,.15-.14,.2-.08,.06-.18,.09-.29,.09h-.7v-.82h.71Zm.24,1.17c.21-.03,.41-.15,.53-.32,.12-.16,.17-.35,.15-.55-.03-.2-.12-.38-.28-.51-.18-.16-.41-.24-.64-.23h-1.18v2.56h.47v-.89h.45l.71,.89h.52v-.1l-.74-.85h0Zm-2.43-.3c-.02,.54,.17,1.06,.53,1.46,.8,.77,2.07,.77,2.87,0,.36-.4,.55-.92,.53-1.45,.02-.54-.17-1.06-.53-1.46-.81-.77-2.07-.77-2.88,0-.36,.4-.54,.93-.52,1.46h0Zm3.78-1.78c.89,1.02,.89,2.53,0,3.55-1.02,.96-2.61,.96-3.64,0-.89-1.02-.89-2.54,0-3.55,1.03-.95,2.61-.95,3.64,0" style="fill:#fff;"/><path id="d" d="M194.34,.67c-2.1-.09-4.01,1.22-4.67,3.21l-4.18,11.46-2.45-10.83c-.4-2.33-2.49-3.99-4.85-3.83h-3.02l-10.22,28.12h4.04c2.6,0,3.84-.97,4.9-3.85l4.01-11.1s1.86,8.34,2.48,11.11c.44,2.31,2.52,3.95,4.87,3.84h2.88L198.33,.67h-3.99Z" style="fill:#fff;"/><path id="e" d="M156.96,18.15c-1.18,3.21-2.56,4.35-5.29,4.35h-2.88c-2.93,0-3.75-2.14-2.93-4.36l2.43-6.85c1.18-3.21,2.56-4.36,5.29-4.36h2.88c2.93,0,3.75,2.13,2.93,4.36l-2.43,6.85ZM157.43,0h-3.4c-5.44-.03-10.33,3.34-12.25,8.43l-2.97,8.25c-1.81,4.93,.73,10.38,5.65,12.19,1.07,.39,2.2,.59,3.34,.58h3.4c5.44,.02,10.33-3.34,12.25-8.43l2.97-8.24c1.83-4.9-.66-10.35-5.56-12.17-1.1-.41-2.26-.61-3.43-.6" style="fill:#fff;"/><path id="f" d="M69.45,24.18l-2.85,4.6h18.18L79.96,.67h-3.77c-1.72,0-3.32,.87-4.24,2.32l-16,25.8h5.54c2.19,0,3.19-.84,5.02-3.78,2.04-3.29,8.17-13.16,8.17-13.16l1.71,9.99h-2.69c-1.73,0-3.33,.88-4.24,2.35" style="fill:#fff;"/><path id="g" d="M116.22,.67h-7.25c-1.41,0-2.75,.59-3.7,1.62l-4.09,4.48-1.37-3.26c-.82-1.75-2.59-2.86-4.52-2.84h-4.32l4.92,11.9-14.8,16.22h7.32c1.43,0,2.79-.6,3.74-1.67l6.75-7.45,3.02,7.15c.55,1.2,1.76,1.97,3.08,1.96h5.41l-6.26-14.88L116.22,.67Z" style="fill:#fff;"/><path id="h" d="M121.64,.67h0c-2.11-.03-4.01,1.3-4.7,3.3l-1.26,3.64h8.54l-7.69,21.18h4.01c2.26-.17,4.2-1.69,4.9-3.84l6.33-17.34h4.7c2.08,.02,3.95-1.27,4.68-3.23l1.33-3.71h-20.84Z" style="fill:#fff;"/><path id="i" d="M43.29,16.59l2.59,8.98c.58,2.06,2.55,3.4,4.67,3.21h3.15l-2.8-7.62c2.63-.21,6.61-2.65,8.28-7.2,2.47-6.73-2.32-13.29-8.35-13.29h-9.7l-10.22,28.12h4.02c2.11,.09,4.01-1.23,4.68-3.23,1.63-4.49,6.54-17.95,6.54-17.95l2.23-.02c2.2-.18,4.14,1.46,4.32,3.66,.05,.64-.05,1.29-.3,1.89-.87,2.36-3.36,3.44-7.3,3.44l-1.81,.02Z" style="fill:#fff;"/><path id="j" d="M23.08,.67H0l1.35,3.7c.79,1.9,2.62,3.17,4.68,3.23H22.56c1.64-.02,2.98,1.3,3,2.94,0,.34-.05,.68-.16,1l-2.63,7.29c-.67,1.82-2.41,3.02-4.35,3.01h-6.41c.46-1.31,3.01-8.29,4.4-12.09l.08-.23h-4.01c-2.07,0-3.93,1.27-4.67,3.21l-3.77,10.31c-.46,1.37-.23,2.88,.62,4.05,.92,1.13,2.32,1.76,3.77,1.69h11.32c4.11,.08,7.82-2.48,9.2-6.36l3.33-9.1C34.7,6.77,30.14,.68,23.08,.67" style="fill:#fff;"/></g></svg>