<?xml version="1.0" encoding="UTF-8"?><svg id="a" xmlns="http://www.w3.org/2000/svg" viewBox="0 0 236.45 33.94"><g id="b" transform="translate(0 0)"><path id="c" d="M0,25.91V.22H6.72V18.56L17.83,4.06S20.44,.47,22.16,.47h5.79S10.47,24.4,10.16,24.86c-.51,.69-1.33,1.08-2.19,1.05H0Z" style="fill:#fff;"/><rect id="d" x="32.37" y=".52" width="7.19" height="25.35" style="fill:#fff;"/><path id="e" d="M43.78,.27h18.82V3.13h-5.84V25.93h-7.08V3.24h-5.84l-.05-2.97Z" style="fill:#fff;"/><path id="f" d="M74.38,2.76h9.02c6.1,0,6.1,9.29,0,9.29h-9.02V2.76Zm-6.93-2.39V25.96h6.93V13.81h5.74s.83,0,2.19,2.03,11.15,15.28,11.15,15.28c0,0,1.88,2.82,4.64,2.82H226.78v-2.87H105.29c-1.7,.12-3.36-.54-4.53-1.78-1.98-2.14-11.94-15.33-11.94-15.33,7.66-.47,8.39-12.46,.42-13.5-1.35-.1-21.79-.1-21.79-.1" style="fill:#fff;"/><path id="g" d="M121.76,15.23c0,4.37-2.45,7.97-5.47,7.97h-4.7c-3.02,0-5.52-3.6-5.52-7.97v-3.91c0-4.38,2.5-7.97,5.52-7.97h4.7c3.02,0,5.46,3.59,5.46,7.97v3.91Zm-3.29-15.23h-8.96c-5.82,.05-10.51,4.77-10.53,10.59v5.16c0,5.82,4.71,10.55,10.53,10.58h8.96c5.84,0,10.58-4.74,10.58-10.58v-5.16c-.02-5.84-4.75-10.57-10.59-10.59" style="fill:#fff;"/><path id="h" d="M180.66,11.63h13.66v2.34h-13.66v3.64c-.02,3.18,2.55,5.77,5.73,5.79h8.11v2.5h-13.28c-3.94,0-7.13-3.2-7.14-7.14V.42h20.23V2.76h-13.66V11.63ZM133.17,.37h5.69c2.5,.21,2.34,.78,3.85,2.97l8.61,12.41,8.54-12.41c1.52-2.19,1.35-2.76,3.85-2.97h5.68V25.91h-5.68V8.55l-12.39,16.78-12.46-16.78V25.91h-5.69V.37Z" style="fill:#fff;"/><path id="i" d="M232,3.72h.31c.28,.01,.56,0,.83-.05,.1-.03,.19-.09,.25-.18,.07-.08,.1-.19,.1-.29,0-.1-.03-.2-.09-.29-.07-.08-.16-.15-.26-.18-.27-.05-.55-.07-.83-.05h-.31v1.04Zm-.78,2.17V2.07h.77c.73,0,1.13,0,1.22,.01,.21,0,.41,.06,.6,.15,.15,.09,.27,.22,.35,.37,.1,.17,.15,.35,.15,.55,0,.26-.09,.52-.27,.71-.2,.21-.47,.33-.76,.36,.1,.03,.19,.08,.27,.14,.1,.09,.18,.19,.26,.29,.03,.04,.12,.19,.28,.47l.45,.77h-.96l-.32-.62c-.13-.29-.31-.56-.54-.79-.16-.11-.34-.17-.54-.16h-.2v1.57h-.78Zm1.63-4.82c-.5,0-.99,.13-1.42,.37-.45,.24-.82,.61-1.07,1.07-.52,.89-.52,2,0,2.89,.25,.45,.62,.82,1.07,1.07,.89,.51,1.99,.51,2.88,0,.45-.25,.82-.62,1.07-1.07,.25-.44,.38-.94,.38-1.44,0-.51-.14-1.01-.39-1.45-.25-.45-.62-.82-1.07-1.07-.44-.24-.93-.37-1.43-.37m0-.7c.62,0,1.23,.16,1.77,.46,.56,.31,1.03,.77,1.34,1.33,.64,1.11,.65,2.48,0,3.6-.31,.56-.77,1.02-1.33,1.33-1.11,.64-2.47,.64-3.58,0-.56-.31-1.02-.77-1.33-1.33-.64-1.12-.64-2.49,0-3.6,.31-.56,.77-1.02,1.33-1.33,.54-.3,1.15-.46,1.78-.46" style="fill:#fff;"/><path id="j" d="M220.58,25.91l-7.4-9.19-7.48,9.19h-6.2l10.5-12.92L199.85,.42h6.21l7.08,8.84L220.23,.42h6.2l-10.15,12.57,10.5,12.92h-6.21Z" style="fill:#fff;"/></g></svg>