<svg id="Grupo_4087" data-name="Grupo 4087" xmlns="http://www.w3.org/2000/svg" xmlns:xlink="http://www.w3.org/1999/xlink" width="63.153" height="63.153" viewBox="0 0 63.153 63.153">
  <defs>
    <clipPath id="clip-path">
      <rect id="Rectángulo_1261" data-name="Rectángulo 1261" width="63.153" height="63.153" fill="#1e64c7"/>
    </clipPath>
  </defs>
  <g id="Grupo_4086" data-name="Grupo 4086" clip-path="url(#clip-path)">
    <path id="Trazado_9093" data-name="Trazado 9093" d="M278.447,248.214a1.232,1.232,0,0,0-2.273-.271c-.135.249-.256.512-.374.767a5.277,5.277,0,0,1-.615,1.117,2.707,2.707,0,0,1-.723.429,3.385,3.385,0,0,0-2.051,1.993,3.61,3.61,0,0,0-.082,1.737,1.122,1.122,0,0,1-.031.726l-.012.029c-.392.92-1.122,2.633-.1,4.088a2.565,2.565,0,0,0,2.093,1.306,1.979,1.979,0,0,0,.328-.027c1.256-.205,2.2-1.512,2.973-4.113l1.449-4.882a1.233,1.233,0,0,0,.01-.666ZM275.22,255.3a7.476,7.476,0,0,1-.942,2.22c-.023-.03-.048-.063-.075-.1-.235-.335.116-1.161.349-1.707l.012-.029a3.465,3.465,0,0,0,.2-2.052,1.292,1.292,0,0,1,0-.639c.048-.154.337-.3.772-.512.193-.093.4-.2.619-.319Z" transform="translate(-228.493 -207.998)" fill="#1e64c7"/>
    <path id="Trazado_9094" data-name="Trazado 9094" d="M274.042,259.939h-.006a2.615,2.615,0,0,1-2.131-1.326c-1.037-1.477-.3-3.2.094-4.133l.013-.029a1.077,1.077,0,0,0,.028-.7,3.644,3.644,0,0,1,.083-1.758,3.424,3.424,0,0,1,2.075-2.021,2.713,2.713,0,0,0,.708-.418,5.265,5.265,0,0,0,.608-1.106c.117-.255.239-.518.375-.77a1.277,1.277,0,0,1,2.357.281l.592,2.234a1.276,1.276,0,0,1-.01.691l-1.449,4.883c-.777,2.619-1.733,3.937-3.009,4.145a2.055,2.055,0,0,1-.33.027m2.97-12.837a1.181,1.181,0,0,0-1.042.62c-.135.249-.256.511-.373.765a5.305,5.305,0,0,1-.622,1.128,2.723,2.723,0,0,1-.738.44,3.348,3.348,0,0,0-2.027,1.966,3.567,3.567,0,0,0-.08,1.717,1.168,1.168,0,0,1-.035.751l-.012.029c-.388.912-1.111,2.609-.1,4.044a2.55,2.55,0,0,0,2.056,1.287,2.012,2.012,0,0,0,.321-.026c1.237-.2,2.17-1.5,2.936-4.081l1.449-4.883a1.185,1.185,0,0,0,.009-.641l-.592-2.234a1.18,1.18,0,0,0-1.006-.873,1.208,1.208,0,0,0-.141-.008m-2.977,10.247L274,257.3c-.024-.03-.049-.064-.077-.1-.25-.356.108-1.2.344-1.751l.013-.029a3.424,3.424,0,0,0,.2-2.026,1.322,1.322,0,0,1,0-.661c.054-.171.336-.318.8-.54.193-.093.406-.2.616-.318l.1-.058-.965,3.251a7.51,7.51,0,0,1-.949,2.233Zm1.8-5.341c-.18.1-.358.185-.518.262-.417.2-.711.352-.754.488a1.261,1.261,0,0,0,.007.619,3.505,3.505,0,0,1-.205,2.077l-.013.029c-.215.5-.574,1.349-.354,1.663l.036.051a7.805,7.805,0,0,0,.9-2.156Z" transform="translate(-228.248 -207.756)" fill="#1e64c7"/>
    <path id="Trazado_9095" data-name="Trazado 9095" d="M200.453,91.886l-.083-.029a1.232,1.232,0,1,0-.815,2.324l.083.029a1.232,1.232,0,0,0,.815-2.324" transform="translate(-167.148 -77.2)" fill="#1e64c7"/>
    <path id="Trazado_9096" data-name="Trazado 9096" d="M199.8,94.084a1.272,1.272,0,0,1-.423-.072l-.083-.029a1.277,1.277,0,1,1,.845-2.41l.083.029a1.277,1.277,0,0,1-.423,2.483m-.082-2.492a1.186,1.186,0,0,0-.394,2.3l.083.029a1.186,1.186,0,1,0,.785-2.238l-.083-.029a1.178,1.178,0,0,0-.391-.067" transform="translate(-166.905 -76.959)" fill="#1e64c7"/>
    <path id="Trazado_9097" data-name="Trazado 9097" d="M63.347,31.7c0-.142,0-.284-.005-.425,0-.118,0-.237-.007-.355,0-.09-.007-.179-.01-.269a31.381,31.381,0,0,0-7.3-19.041l-.1-.12c-.105-.124-.21-.249-.317-.371A31.169,31.169,0,0,0,50.06,6.093l-.024-.017q-.249-.176-.5-.347l-.225-.152L49,5.375q-.222-.144-.446-.285l-.1-.06A31.368,31.368,0,0,0,32.376.294l-.244,0c-.1,0-.209,0-.314,0l-.144,0c-.151,0-.3,0-.454.006L30.929.3c-.176,0-.351.012-.527.019l-.255.011c-.162.008-.325.019-.487.03l-.323.022c-.118.009-.236.02-.354.031-.159.014-.317.028-.475.045l-.143.016A31.416,31.416,0,0,0,9.522,9.522c-.068.068-.134.138-.2.207l-.009.01q-.248.253-.49.51l-.1.1q-.207.222-.41.448l-.117.132q-.2.225-.394.453l-.09.107q-.214.253-.423.511l-.031.039A31.385,31.385,0,0,0,.294,31.272c0,.081,0,.161,0,.242,0,.1,0,.2,0,.3,0,.046,0,.093,0,.139,0,.169,0,.337.006.505,0,.074,0,.148,0,.222q.008.316.023.632c0,.044,0,.089.006.133q.016.324.04.648c0,.049.006.1.01.146.015.191.032.382.05.572.007.08.014.161.023.241.014.141.031.283.047.424s.031.268.048.4c.009.071.02.142.029.213A31.5,31.5,0,0,0,30.5,63.32l.09,0c.185.007.371.014.557.017.142,0,.284,0,.426.005.082,0,.163,0,.244,0h.026q.377,0,.754-.01l.142,0c.2-.006.409-.013.614-.023l.276-.016c.154-.009.308-.018.462-.029.126-.009.253-.02.379-.03l.342-.03c.157-.015.313-.031.469-.048l.234-.026q.277-.032.554-.07l.128-.018q.321-.045.641-.1l.014,0A31.4,31.4,0,0,0,51.3,56.613l.017-.012A31.459,31.459,0,0,0,63.286,33.79c0-.057.007-.114.011-.171q.013-.233.022-.467.007-.171.013-.342t.009-.36q0-.217.005-.433c0-.066,0-.133,0-.2,0-.039,0-.078,0-.117M11.883,10.764a3.2,3.2,0,0,1,1.933,1.805,2.733,2.733,0,0,1-.527,2.9L11.84,17.021a1.237,1.237,0,0,0-.168.228l-3.29,5.744L5.457,25.084a1.232,1.232,0,0,0-.3,1.7l1.094,1.6c-.63.094-1.2.171-1.572.212-.072-.069-.148-.14-.226-.212-.288-.268-.688-.625-1.279-1.142a28.974,28.974,0,0,1,8.711-16.477m-8.968,19.3a1.2,1.2,0,0,1-.021-.159,1.269,1.269,0,0,0,.021.159M13.253,48.21l-.965,5.038A28.982,28.982,0,0,1,3.124,36.083l2.987-.97,5.079,3.862a1.233,1.233,0,0,0,.509.228l3.061.6A1.368,1.368,0,0,1,15.8,41.57a3.807,3.807,0,0,0,0,2.378l.39,1.2a1.37,1.37,0,0,1-.879,1.724l-1.224.4a1.231,1.231,0,0,0-.829.94M31.818,60.826A28.857,28.857,0,0,1,14.452,55.04l1.083-5.652.532-.173a3.836,3.836,0,0,0,2.46-4.828l-.39-1.2a1.36,1.36,0,0,1,0-.849,3.832,3.832,0,0,0-2.906-4.955l-2.78-.543L7.089,32.761a1.232,1.232,0,0,0-1.126-.191l-3.1,1.006c-.035-.582-.055-1.168-.055-1.759q0-.784.042-1.559c.1.1.176.167.221.214a1.291,1.291,0,0,0,1.2.617,17.886,17.886,0,0,0,2.207-.251c1.039-.154,2.073-.326,2.083-.328A1.231,1.231,0,0,0,9.38,28.6L7.87,26.387l2.163-1.547a1.231,1.231,0,0,0,.352-.39L13.738,18.6l1.351-1.448a5.2,5.2,0,0,0,1-5.518A5.66,5.66,0,0,0,13.9,9.021,28.864,28.864,0,0,1,31.454,2.814L29.287,5.532,21.132,8.391a1.231,1.231,0,0,0-.731.693L18.123,14.6a1.231,1.231,0,0,0,.136,1.185l3.326,4.66A11.725,11.725,0,0,0,20.092,22.3c-.243.345-.472.67-.631.853-.138.159-.276.314-.412.468a11.522,11.522,0,0,0-1.981,2.749,7.339,7.339,0,0,0,.609,7.419,6.912,6.912,0,0,0,6.527,2.8,9.589,9.589,0,0,0,1.2-.243c1.056-.261,1.39-.287,1.729.03.165.154.18.184.177.707a4.788,4.788,0,0,0,.11,1.221,3.891,3.891,0,0,0,1.041,1.7,2.766,2.766,0,0,1,.447.57,3.068,3.068,0,0,1-.15,2.548c-.031.1-.063.193-.1.293-.557,1.724.219,3.434.9,4.942.222.49.432.952.57,1.361,1.108,3.286,1.938,4.039,2.6,4.342a2.568,2.568,0,0,0,1.075.228c1.775,0,3.628-1.649,4.479-2.694a3.79,3.79,0,0,0,.762-1.793,1.959,1.959,0,0,1,.157-.55,3.226,3.226,0,0,1,.4-.519,4.276,4.276,0,0,0,1.007-1.673,2.71,2.71,0,0,1,.836-1.312c.085-.09.175-.186.272-.292,1.64-1.785,1.218-3.149.77-4.592-.376-1.215.282-1.992,1.874-3.474a13.3,13.3,0,0,0,1.956-2.106,2.658,2.658,0,0,0,.521-2.467c-.445-1.033-1.578-1.207-2.488-1.347A4.078,4.078,0,0,1,43.3,31.22a5.819,5.819,0,0,1-1.679-2.544c-.09-.2-.178-.4-.268-.59-.16-.342-.32-.756-.489-1.194a10.327,10.327,0,0,0-1.82-3.391,7.866,7.866,0,0,0-3.534-1.57c-.434-.118-.845-.229-1.115-.328a1.229,1.229,0,0,0-.708-.044,3.2,3.2,0,0,0-1.313.544,1.529,1.529,0,0,0-.438.59,14.039,14.039,0,0,1-1.453-.884l-.024-.016a1.747,1.747,0,0,0-.11-1.186c-.688-1.455-2.972-1.341-3.422-1.3-.256.021-.58.033-.923.045-.538.019-1.133.041-1.721.107l.03-.085a3.149,3.149,0,0,1,2.957-2.081h.7a1.232,1.232,0,0,0,0-2.463h-.7A5.622,5.622,0,0,0,22.5,17.487L20.66,14.914l1.807-4.381,7.969-2.794a1.232,1.232,0,0,0,.556-.394l3.515-4.409a29.077,29.077,0,0,1,25.349,21.44l-.486.434a3.289,3.289,0,0,0-1.1,2.393c0,.01,0,.02,0,.03l-.851-2.339a3.078,3.078,0,0,0-.555-.951l-1.517-1.776A3.087,3.087,0,0,0,53,21.081H51.144a1.784,1.784,0,0,0-1.484,2.773l.188.282a13.648,13.648,0,0,1-4.066,2.415l-2.546-4.876V20.587a1.231,1.231,0,0,0-.381-.891l-2.293-2.189a1.232,1.232,0,0,0-.442-.271l-2.064-.725a1.232,1.232,0,1,0-.817,2.324l1.813.637,1.72,1.641v.863a1.231,1.231,0,0,0,.14.57L44.1,28.652a1.231,1.231,0,0,0,1.518.585l.928-.342a16.114,16.114,0,0,0,5.779-3.7,1.231,1.231,0,0,0,.154-1.554l-.065-.1H53a.628.628,0,0,1,.477.22L55,25.541a.627.627,0,0,1,.112.193l1.675,4.6a1.231,1.231,0,0,0,2.028.45l.8-.8a3.836,3.836,0,0,0,1-1.768,29.016,29.016,0,0,1-28.786,32.6M27.582,22.4a1.231,1.231,0,0,0,.636.9c.231.124.553.338.893.565a7.1,7.1,0,0,0,3.079,1.434,2.044,2.044,0,0,0,1.673-.7c.018-.018.034-.036.052-.052a1.316,1.316,0,0,0,.329-.4c.2.056.4.112.616.17a8.2,8.2,0,0,1,2.387.883,8.738,8.738,0,0,1,1.314,2.588c.185.479.36.932.556,1.351.084.18.167.365.251.553a7.693,7.693,0,0,0,2.579,3.6A5.093,5.093,0,0,0,44,33.907l.268.042a11.908,11.908,0,0,1-1.563,1.64c-1.525,1.42-3.422,3.187-2.548,6.006.413,1.331.432,1.475-.232,2.2-.09.1-.174.188-.253.272a5.06,5.06,0,0,0-1.388,2.253,1.925,1.925,0,0,1-.5.783,5.5,5.5,0,0,0-.689.912,4,4,0,0,0-.446,1.308,1.509,1.509,0,0,1-.257.722,7.184,7.184,0,0,1-1.555,1.375,2.034,2.034,0,0,1-1.032.411,8.784,8.784,0,0,1-1.327-2.893c-.177-.526-.424-1.069-.661-1.593-.524-1.155-1.067-2.35-.8-3.166l.092-.282a5.38,5.38,0,0,0,.082-4.264,4.435,4.435,0,0,0-.9-1.278,2.288,2.288,0,0,1-.47-.625,2.661,2.661,0,0,1-.04-.623,3.055,3.055,0,0,0-.956-2.521,3.967,3.967,0,0,0-4-.623,7.734,7.734,0,0,1-.9.187,4.425,4.425,0,0,1-4.239-1.792,4.876,4.876,0,0,1-.382-4.93A9.355,9.355,0,0,1,20.89,25.26c.143-.161.287-.323.432-.489.24-.277.5-.652.784-1.049A8.9,8.9,0,0,1,23.33,22.2a7.9,7.9,0,0,1,2.755-.387c.373-.013.726-.026,1.041-.052a3.345,3.345,0,0,1,.525,0,1.231,1.231,0,0,0-.069.636" transform="translate(-0.241 -0.241)" fill="#1e64c7"/>
    <path id="Trazado_9098" data-name="Trazado 9098" d="M31.577,63.153l-.141,0h-.149c-.127,0-.254,0-.381,0-.186,0-.372-.01-.557-.017l-.09,0A31.546,31.546,0,0,1,.289,35.86l-.011-.081c-.006-.044-.012-.088-.018-.132-.016-.123-.03-.246-.044-.37l-.006-.05c-.016-.136-.032-.271-.045-.407-.006-.054-.01-.107-.015-.161l-.007-.08c-.018-.191-.035-.382-.05-.573l-.01-.146c-.017-.236-.03-.448-.04-.649l-.006-.133c-.011-.231-.018-.438-.023-.633,0-.053,0-.106,0-.159v-.064C0,32.054,0,31.885,0,31.716v-.064c0-.025,0-.05,0-.075,0-.06,0-.121,0-.181q0-.062,0-.123v-.064c0-.059,0-.119,0-.178A31.427,31.427,0,0,1,6.981,11.773l.031-.039c.137-.169.28-.341.424-.512l.09-.107q.2-.229.4-.454l.03-.034.088-.1q.2-.226.41-.449l.1-.1c.157-.168.322-.339.491-.511l.088-.09c.041-.042.082-.085.124-.126A31.46,31.46,0,0,1,28.12.188l.143-.016c.159-.017.317-.031.476-.045l.045,0L29.093.1l.266-.019.057,0c.162-.011.325-.022.487-.03l.185-.008.071,0c.176-.008.352-.015.528-.02l.22,0h.071c.151,0,.3-.005.455-.006H31.5c.09,0,.18,0,.27,0l.189,0,.178,0A31.361,31.361,0,0,1,43.868,2.482,31.68,31.68,0,0,1,48.24,4.75l.1.06q.225.141.447.285l.309.2.226.152q.253.171.5.348l.024.017A31.272,31.272,0,0,1,55.4,10.849c.107.123.212.247.318.372l.043.05.059.069A31.426,31.426,0,0,1,63.13,30.409l0,.082c0,.062.005.125.007.187,0,.1,0,.194.006.291v.065c0,.142,0,.284.005.426v.056c0,.02,0,.041,0,.061,0,.038,0,.075,0,.112s0,.058,0,.087c0,.145,0,.289-.005.434q0,.181-.009.361t-.013.343q-.01.234-.023.468l-.01.171A31.566,31.566,0,0,1,51.106,56.4l-.012.009a31.455,31.455,0,0,1-14.474,6.348l-.014,0c-.209.034-.425.066-.642.1l-.128.017q-.277.037-.555.07l-.231.026c-.16.017-.316.034-.473.049l-.293.025-.113.009-.316.025c-.154.011-.308.02-.462.029l-.1.006-.178.01c-.2.01-.41.017-.615.023l-.061,0-.081,0c-.265.006-.513.009-.755.009ZM9.07,9.5l.033.032c-.168.171-.332.342-.489.509l-.1.1q-.207.222-.409.447l-.088.1-.03.034q-.2.225-.394.453l-.09.106c-.144.17-.286.342-.422.51l-.031.039A31.339,31.339,0,0,0,.1,31.032c0,.059,0,.118,0,.177v.065q0,.062,0,.124c0,.06,0,.119,0,.179,0,.024,0,.049,0,.073v.066c0,.168,0,.336.006.5v.064c0,.053,0,.106,0,.159.005.195.013.4.023.631l.006.133c.01.2.023.412.04.647L.183,34c.014.191.032.381.05.572l.007.081c0,.054.01.107.015.16.014.135.03.271.045.406l.006.05c.014.123.028.246.044.369.006.044.012.088.018.131l.011.081A31.45,31.45,0,0,0,30.261,63.033l.09,0c.185.007.37.014.556.017.126,0,.253,0,.38,0h.15l.14,0h.02c.248,0,.5,0,.76-.009l.08,0,.062,0c.2-.006.409-.013.613-.023l.177-.01.1-.006c.154-.009.308-.017.461-.028l.315-.025.113-.009.292-.025c.156-.015.312-.031.468-.048l.233-.026q.277-.032.554-.07l.128-.018c.216-.03.431-.062.64-.1l.013,0a31.355,31.355,0,0,0,14.427-6.326l.011-.008A31.41,31.41,0,0,0,63,33.547l.011-.171q.013-.233.022-.466.007-.171.013-.342c0-.12.007-.24.009-.36q0-.216.005-.432c0-.029,0-.059,0-.088s0-.074,0-.111c0-.02,0-.04,0-.06V31.46c0-.142,0-.283-.005-.425v-.065c0-.1,0-.194-.006-.29,0-.062,0-.124-.007-.186l0-.082A31.334,31.334,0,0,0,55.747,11.4l-.058-.069-.043-.051c-.1-.124-.21-.248-.317-.371a31.179,31.179,0,0,0-5.537-5.02l-.024-.017q-.249-.176-.5-.347l-.225-.152-.308-.2q-.221-.144-.445-.284l-.1-.06A31.317,31.317,0,0,0,32.134.1l-.177,0-.189,0c-.089,0-.178,0-.267,0h-.067c-.151,0-.3,0-.453.006h-.071l-.219,0c-.175,0-.351.012-.526.019l-.071,0-.183.008c-.162.008-.324.019-.486.03l-.058,0L29.1.188l-.308.027-.045,0c-.158.014-.317.028-.475.045L28.13.279A31.368,31.368,0,0,0,9.313,9.313c-.041.041-.082.083-.123.125l-.079.081ZM31.577,60.631a28.783,28.783,0,0,1-17.393-5.8l-.023-.017,1.093-5.707.557-.181a3.79,3.79,0,0,0,2.431-4.77l-.39-1.2a1.408,1.408,0,0,1,0-.878,3.786,3.786,0,0,0-2.871-4.9l-2.79-.545-.008-.006L6.82,32.557a1.186,1.186,0,0,0-1.084-.184L2.581,33.4l0-.059c-.037-.615-.055-1.192-.055-1.762,0-.508.014-1.034.042-1.561l.005-.1.072.067c.1.093.174.166.222.215l.006.008a1.246,1.246,0,0,0,1.164.595,17.649,17.649,0,0,0,2.2-.251c1-.147,1.973-.31,2.081-.328A1.186,1.186,0,0,0,9.1,28.387L7.565,26.135l2.2-1.573a1.194,1.194,0,0,0,.339-.375l3.356-5.858,0,0,1.352-1.448a5.157,5.157,0,0,0,1-5.469,5.584,5.584,0,0,0-2.177-2.589l-.054-.035.051-.04A28.754,28.754,0,0,1,31.212,2.527h.1l-2.235,2.8-.012,0L20.906,8.193a1.187,1.187,0,0,0-.7.667l-2.278,5.521a1.18,1.18,0,0,0,.131,1.141l3.35,4.693-.03.027a11.755,11.755,0,0,0-1.487,1.846c-.243.345-.473.672-.633.857-.138.159-.276.314-.413.468a11.475,11.475,0,0,0-1.973,2.738,7.292,7.292,0,0,0,.6,7.373,6.866,6.866,0,0,0,6.484,2.782,9.547,9.547,0,0,0,1.2-.242c1.076-.266,1.417-.291,1.771.041.182.17.194.219.191.74a4.753,4.753,0,0,0,.109,1.21,3.854,3.854,0,0,0,1.03,1.68,2.774,2.774,0,0,1,.455.583,3.1,3.1,0,0,1-.148,2.579c-.031.1-.063.193-.1.293-.551,1.707.221,3.408.9,4.909.222.49.433.952.571,1.365,1.1,3.269,1.922,4.016,2.579,4.314A2.532,2.532,0,0,0,33.576,54h0c1.787,0,3.634-1.683,4.444-2.677a3.749,3.749,0,0,0,.753-1.773,1.974,1.974,0,0,1,.163-.565,3.256,3.256,0,0,1,.409-.527,4.238,4.238,0,0,0,1-1.657,2.741,2.741,0,0,1,.846-1.329c.085-.09.175-.187.272-.292,1.623-1.766,1.2-3.117.761-4.548-.384-1.24.28-2.025,1.887-3.521a13.275,13.275,0,0,0,1.949-2.1,2.619,2.619,0,0,0,.517-2.423c-.435-1.01-1.554-1.182-2.452-1.32a3.981,3.981,0,0,1-1.093-.258,5.85,5.85,0,0,1-1.7-2.563l0-.011c-.088-.2-.175-.39-.263-.578-.16-.341-.318-.752-.487-1.187l0-.01a10.3,10.3,0,0,0-1.811-3.376,7.836,7.836,0,0,0-3.512-1.557c-.436-.118-.847-.229-1.12-.33a1.18,1.18,0,0,0-.681-.042,3.155,3.155,0,0,0-1.295.535,1.493,1.493,0,0,0-.425.571l-.018.045-.044-.021a14.1,14.1,0,0,1-1.458-.887l-.051-.034.008-.031a1.7,1.7,0,0,0-.107-1.155c-.677-1.431-2.932-1.315-3.377-1.277-.257.021-.581.033-.924.045-.528.019-1.126.04-1.718.106l-.073.008.055-.154a3.2,3.2,0,0,1,3-2.111h.7a1.186,1.186,0,1,0,0-2.372h-.7a5.6,5.6,0,0,0-4.729,2.637l-.036.058-1.892-2.65,1.825-4.423.019-.007L30.18,7.454a1.185,1.185,0,0,0,.535-.38l3.53-4.428.024,0A29.146,29.146,0,0,1,59.66,24.122l.007.027-.507.452a3.243,3.243,0,0,0-1.081,2.36l-.009.265-.931-2.56a3.031,3.031,0,0,0-.546-.937l-1.517-1.776a3.042,3.042,0,0,0-2.315-1.067H50.9a1.738,1.738,0,0,0-1.446,2.7l.21.316-.031.026a13.78,13.78,0,0,1-4.08,2.423l-.038.014-2.57-4.922v-1.1a1.191,1.191,0,0,0-.367-.858L40.289,17.3a1.178,1.178,0,0,0-.426-.261L37.8,16.313a1.186,1.186,0,1,0-.786,2.238l1.83.647,1.734,1.655v.883a1.191,1.191,0,0,0,.135.549L43.9,28.39a1.188,1.188,0,0,0,1.461.564l.928-.342a16.072,16.072,0,0,0,5.763-3.688,1.189,1.189,0,0,0,.148-1.5l-.113-.169h.674a.674.674,0,0,1,.512.236l1.517,1.776a.668.668,0,0,1,.121.207l1.675,4.6a1.186,1.186,0,0,0,1.953.433l.8-.8a3.805,3.805,0,0,0,.984-1.747l.06-.233.03.239A29.061,29.061,0,0,1,31.577,60.631M14.261,54.78a28.691,28.691,0,0,0,17.316,5.76A28.968,28.968,0,0,0,60.344,28.212a3.872,3.872,0,0,1-.945,1.57l-.8.8a1.277,1.277,0,0,1-2.1-.466l-1.675-4.6a.581.581,0,0,0-.1-.179L53.2,23.553a.582.582,0,0,0-.443-.2h-.5l.018.027a1.28,1.28,0,0,1-.16,1.612,16.164,16.164,0,0,1-5.8,3.71l-.928.342a1.279,1.279,0,0,1-1.574-.607l-3.187-6.105a1.283,1.283,0,0,1-.145-.591v-.844l-1.7-1.621-1.8-.634a1.277,1.277,0,1,1,.847-2.41l2.064.725a1.269,1.269,0,0,1,.459.281l2.293,2.189a1.283,1.283,0,0,1,.4.924v1.077l2.522,4.831a13.7,13.7,0,0,0,3.984-2.366l-.165-.248A1.83,1.83,0,0,1,50.9,20.794H52.76a3.132,3.132,0,0,1,2.385,1.1l1.517,1.776a3.124,3.124,0,0,1,.563.966L58,26.759a3.337,3.337,0,0,1,1.1-2.226l.465-.415A29.056,29.056,0,0,0,34.286,2.742l-3.5,4.39a1.275,1.275,0,0,1-.576.409l-7.95,2.787-1.79,4.339,1.783,2.5a5.7,5.7,0,0,1,4.77-2.623h.7a1.277,1.277,0,0,1,0,2.555h-.7a3.1,3.1,0,0,0-2.914,2.05l-.006.016c.571-.06,1.144-.081,1.652-.1.342-.012.665-.024.92-.045.456-.039,2.765-.157,3.467,1.329a1.79,1.79,0,0,1,.12,1.185,14.709,14.709,0,0,0,1.4.858,1.568,1.568,0,0,1,.433-.563,3.236,3.236,0,0,1,1.331-.552,1.275,1.275,0,0,1,.734.045c.269.1.678.21,1.112.327A7.9,7.9,0,0,1,38.83,23.23a10.368,10.368,0,0,1,1.83,3.405l0,.01c.168.434.326.843.484,1.181.088.188.175.383.263.579l0,.011a5.8,5.8,0,0,0,1.662,2.524,4.182,4.182,0,0,0,1.055.244c.923.141,2.069.317,2.524,1.374a2.7,2.7,0,0,1-.525,2.511,13.345,13.345,0,0,1-1.962,2.114c-1.578,1.469-2.231,2.237-1.862,3.427.451,1.456.878,2.832-.78,4.637-.1.106-.188.2-.272.292a2.675,2.675,0,0,0-.825,1.294,4.315,4.315,0,0,1-1.016,1.689,3.184,3.184,0,0,0-.4.513,1.938,1.938,0,0,0-.152.535,3.83,3.83,0,0,1-.772,1.815c-.82,1.007-2.693,2.71-4.515,2.711h0a2.624,2.624,0,0,1-1.093-.232c-.675-.307-1.515-1.066-2.628-4.369-.137-.408-.347-.869-.568-1.357-.688-1.516-1.468-3.234-.906-4.975q.048-.15.1-.293a3.034,3.034,0,0,0,.151-2.516,2.765,2.765,0,0,0-.438-.556,3.931,3.931,0,0,1-1.052-1.72,4.823,4.823,0,0,1-.111-1.232c0-.518-.012-.533-.162-.673-.323-.3-.65-.275-1.687-.019a9.589,9.589,0,0,1-1.209.244,6.956,6.956,0,0,1-6.569-2.82,7.385,7.385,0,0,1-.613-7.466,11.555,11.555,0,0,1,1.988-2.76c.137-.154.274-.309.412-.467.157-.181.386-.506.628-.849A12.149,12.149,0,0,1,21.284,20.2l-3.3-4.627a1.271,1.271,0,0,1-.141-1.229l2.278-5.521a1.279,1.279,0,0,1,.758-.718l8.143-2.855,2.1-2.632a28.658,28.658,0,0,0-17.38,6.156,5.672,5.672,0,0,1,2.158,2.6,5.249,5.249,0,0,1-1.013,5.566l-1.348,1.444-3.35,5.849a1.289,1.289,0,0,1-.365.4L7.691,26.157l1.485,2.178a1.277,1.277,0,0,1-.844,1.979c-.109.018-1.087.181-2.084.328a17.711,17.711,0,0,1-2.214.252,1.336,1.336,0,0,1-1.24-.635c-.034-.035-.082-.083-.144-.141-.024.492-.037.982-.037,1.457,0,.55.017,1.106.051,1.7l3.042-.988a1.279,1.279,0,0,1,1.168.2l5.355,4.072L15,37.1a3.877,3.877,0,0,1,2.94,5.014,1.314,1.314,0,0,0,0,.821l.39,1.2a3.882,3.882,0,0,1-2.49,4.885l-.506.164ZM12.076,53.1l-.06-.055A29.122,29.122,0,0,1,2.837,35.848l-.006-.038,3.047-.99,5.1,3.876a1.192,1.192,0,0,0,.49.22l3.061.6A1.414,1.414,0,0,1,15.6,41.343a3.761,3.761,0,0,0,0,2.35l.39,1.2a1.416,1.416,0,0,1-.908,1.782l-1.224.4a1.185,1.185,0,0,0-.8.9ZM2.933,35.873a29.03,29.03,0,0,0,9.083,17.045l.95-4.958a1.276,1.276,0,0,1,.86-.974l1.224-.4a1.324,1.324,0,0,0,.849-1.667l-.39-1.2a3.852,3.852,0,0,1,0-2.406,1.322,1.322,0,0,0-1-1.71l-3.061-.6a1.285,1.285,0,0,1-.528-.237l-5.06-3.847Zm30.643,15.76h-.038l-.012-.013a8.828,8.828,0,0,1-1.337-2.909c-.177-.526-.423-1.066-.66-1.588-.528-1.164-1.074-2.367-.805-3.2l.092-.283a5.344,5.344,0,0,0,.084-4.232,4.4,4.4,0,0,0-.887-1.263,2.283,2.283,0,0,1-.482-.646,2.685,2.685,0,0,1-.042-.634,3.014,3.014,0,0,0-.942-2.488,3.928,3.928,0,0,0-3.962-.612,7.778,7.778,0,0,1-.9.188A4.471,4.471,0,0,1,19.4,32.141a4.922,4.922,0,0,1-.386-4.976,9.385,9.385,0,0,1,1.6-2.176l.038-.043c.13-.147.262-.295.393-.446.24-.277.5-.65.781-1.045a8.862,8.862,0,0,1,1.238-1.536,7.9,7.9,0,0,1,2.777-.394c.372-.013.723-.025,1.039-.052a3.367,3.367,0,0,1,.532,0l.061,0-.022.057A1.186,1.186,0,0,0,28,23.012c.232.124.553.338.893.565a7.078,7.078,0,0,0,3.06,1.429,2,2,0,0,0,1.636-.682l.017-.017.039-.039a1.276,1.276,0,0,0,.32-.391l.017-.033.036.01c.188.054.385.107.587.162l.028.007a8.156,8.156,0,0,1,2.408.9,8.755,8.755,0,0,1,1.324,2.6c.185.478.359.929.555,1.348.077.165.153.334.23.505l.022.048A7.655,7.655,0,0,0,41.731,33a5.054,5.054,0,0,0,2.03.617l.27.043.072.012-.043.06a11.929,11.929,0,0,1-1.567,1.645c-1.517,1.412-3.4,3.169-2.537,5.961.413,1.333.436,1.5-.242,2.241-.09.1-.175.188-.254.272a5.022,5.022,0,0,0-1.378,2.235,1.958,1.958,0,0,1-.511.8,5.456,5.456,0,0,0-.684.905,3.953,3.953,0,0,0-.44,1.294,1.539,1.539,0,0,1-.267.742,7.234,7.234,0,0,1-1.566,1.385,2.123,2.123,0,0,1-1.039.418M26.3,33.4a3.247,3.247,0,0,1,2.311.9,3.094,3.094,0,0,1,.971,2.555,2.627,2.627,0,0,0,.039.612,2.347,2.347,0,0,0,.46.605,4.477,4.477,0,0,1,.905,1.291,5.418,5.418,0,0,1-.081,4.3l-.092.282c-.258.8.28,1.985.8,3.132.239.526.485,1.068.664,1.6a9.085,9.085,0,0,0,1.3,2.862,2.078,2.078,0,0,0,.987-.4,7.134,7.134,0,0,0,1.544-1.365,1.479,1.479,0,0,0,.248-.7,4.03,4.03,0,0,1,.451-1.322,5.539,5.539,0,0,1,.694-.92A1.89,1.89,0,0,0,38,46.061a5.1,5.1,0,0,1,1.4-2.27c.079-.084.163-.173.253-.272.649-.706.633-.824.222-2.152-.882-2.847,1.027-4.625,2.561-6.053a12.447,12.447,0,0,0,1.513-1.573l-.195-.03a5.127,5.127,0,0,1-2.067-.631,7.726,7.726,0,0,1-2.6-3.617l-.022-.048c-.077-.171-.153-.34-.229-.5-.2-.422-.372-.875-.557-1.354a8.707,8.707,0,0,0-1.3-2.573,8.247,8.247,0,0,0-2.365-.87l-.028-.008c-.19-.051-.376-.1-.553-.152a1.367,1.367,0,0,1-.323.385l-.033.033-.016.016a2.085,2.085,0,0,1-1.708.71,7.124,7.124,0,0,1-3.1-1.442c-.342-.228-.661-.441-.889-.563a1.277,1.277,0,0,1-.608-1.531,3.206,3.206,0,0,0-.457,0c-.318.027-.67.039-1.043.052A7.894,7.894,0,0,0,23.111,22,8.992,8.992,0,0,0,21.9,23.5c-.281.4-.545.775-.788,1.055-.132.152-.263.3-.394.447l-.038.043A9.317,9.317,0,0,0,19.1,27.2a4.83,4.83,0,0,0,.378,4.883,4.38,4.38,0,0,0,4.2,1.773,7.6,7.6,0,0,0,.886-.185A7.217,7.217,0,0,1,26.3,33.4M2.629,29.833a1.251,1.251,0,0,1-.021-.162v0h0l.091-.006h0v0a1.241,1.241,0,0,0,.02.15h0ZM4.42,28.4,4.4,28.388c-.072-.069-.148-.139-.226-.212-.29-.269-.684-.621-1.278-1.142l-.019-.017,0-.025A28.8,28.8,0,0,1,5.93,17.936,29.163,29.163,0,0,1,11.61,10.49l.02-.019.026.009a3.238,3.238,0,0,1,1.96,1.831,2.779,2.779,0,0,1-.536,2.947l-1.449,1.552a1.2,1.2,0,0,0-.162.22l-3.3,5.753-2.932,2.1a1.193,1.193,0,0,0-.29,1.633l1.135,1.664-.072.011c-.669.1-1.213.173-1.574.212Zm-1.44-1.42c.584.512.974.86,1.261,1.127.073.068.144.133.211.2.346-.038.855-.107,1.477-.2L4.877,26.564a1.285,1.285,0,0,1,.312-1.759l2.916-2.085,3.285-5.735a1.287,1.287,0,0,1,.175-.237L13.014,15.2a2.688,2.688,0,0,0,.519-2.85,3.147,3.147,0,0,0-1.879-1.771A29.1,29.1,0,0,0,2.98,26.982" transform="translate(0 0)" fill="#1e64c7"/>
  </g>
</svg>
