<svg id="Grupo_4092" data-name="Grupo 4092" xmlns="http://www.w3.org/2000/svg" xmlns:xlink="http://www.w3.org/1999/xlink" width="77.213" height="63.517" viewBox="0 0 77.213 63.517">
  <defs>
    <clipPath id="clip-path">
      <rect id="Rectángulo_1267" data-name="Rectángulo 1267" width="77.213" height="63.517" fill="#1e64c7"/>
    </clipPath>
  </defs>
  <rect id="Rectángulo_1263" data-name="Rectángulo 1263" width="3.13" height="17.039" transform="translate(5.501 45.696)" fill="#1e64c7"/>
  <rect id="Rectángulo_1264" data-name="Rectángulo 1264" width="3.13" height="14.645" transform="translate(13.874 48.09)" fill="#1e64c7"/>
  <g id="Grupo_4091" data-name="Grupo 4091">
    <g id="Grupo_4090" data-name="Grupo 4090" clip-path="url(#clip-path)">
      <path id="Trazado_9102" data-name="Trazado 9102" d="M33.624,18.11A9.038,9.038,0,0,1,24.6,9.055a9.021,9.021,0,1,1,9.021,9.055m0-14.979a5.835,5.835,0,0,0-4.163,1.733,5.947,5.947,0,0,0,0,8.383,5.836,5.836,0,0,0,4.163,1.733,5.924,5.924,0,0,0,0-11.849" transform="translate(-18.185 -0.001)" fill="#1e64c7"/>
      <path id="Trazado_9103" data-name="Trazado 9103" d="M25.378,117.663h-3.13v-36.3A1.565,1.565,0,0,1,23.813,79.8H38.791a4.018,4.018,0,0,0,2.81-1.153,3.922,3.922,0,0,0,.83-1.2H6.036a2.916,2.916,0,0,0-2.906,2.92V95.108A3.959,3.959,0,0,0,5.5,98.736V82.03h3.13v18.6a1.565,1.565,0,0,1-1.565,1.565A7.074,7.074,0,0,1,0,95.108V80.363a6.05,6.05,0,0,1,6.036-6.05H44.323a1.565,1.565,0,0,1,1.565,1.565,6.98,6.98,0,0,1-2.083,4.99,7.074,7.074,0,0,1-5.014,2.06H25.378Z" transform="translate(0 -54.928)" fill="#1e64c7"/>
      <path id="Trazado_9104" data-name="Trazado 9104" d="M165.721,39.278h-42.3a1.565,1.565,0,0,1-1.565-1.565V26.436h3.13v9.711h39.165V3.131H124.991V20.95h-3.13V1.566A1.565,1.565,0,0,1,123.426,0h42.3a1.565,1.565,0,0,1,1.565,1.565V37.712a1.565,1.565,0,0,1-1.565,1.565" transform="translate(-90.073 -0.001)" fill="#1e64c7"/>
      <rect id="Rectángulo_1265" data-name="Rectángulo 1265" width="28.889" height="3.13" transform="translate(38.707 61.953) rotate(-60.016)" fill="#1e64c7"/>
      <rect id="Rectángulo_1266" data-name="Rectángulo 1266" width="3.13" height="28.889" transform="translate(53.145 38.494) rotate(-29.982)" fill="#1e64c7"/>
      <path id="Trazado_9105" data-name="Trazado 9105" d="M153.828,85.416H147.17a1.565,1.565,0,0,1-1.565-1.565V81.289h3.13v1h3.528V77.443h-.316v-3.13h1.881a1.565,1.565,0,0,1,1.565,1.565v7.973a1.565,1.565,0,0,1-1.565,1.565" transform="translate(-107.624 -54.928)" fill="#1e64c7"/>
      <path id="Trazado_9106" data-name="Trazado 9106" d="M198.394,71.487h-6.658a1.565,1.565,0,0,1-1.565-1.565V57.033a1.565,1.565,0,0,1,1.565-1.565h6.658a1.565,1.565,0,0,1,1.565,1.565V69.922a1.565,1.565,0,0,1-1.565,1.565m-5.093-3.13h3.528V58.6H193.3Z" transform="translate(-140.565 -40.999)" fill="#1e64c7"/>
      <path id="Trazado_9107" data-name="Trazado 9107" d="M242.959,55.392H236.3a1.565,1.565,0,0,1-1.565-1.565V35.258a1.565,1.565,0,0,1,1.565-1.565h6.658a1.565,1.565,0,0,1,1.565,1.565V53.827a1.565,1.565,0,0,1-1.565,1.565m-5.093-3.13h3.528V36.823h-3.528Z" transform="translate(-173.505 -24.904)" fill="#1e64c7"/>
    </g>
  </g>
</svg>
