<svg xmlns="http://www.w3.org/2000/svg" width="14.46" height="17.069" viewBox="0 0 14.46 17.069">
  <g id="Grupo_4379" data-name="Grupo 4379" transform="translate(-28.875 -23.491)">
    <g id="Grupo_2649" data-name="Grupo 2649" transform="translate(28.875 39.51)">
      <path id="Trazado_8352" data-name="Trazado 8352" d="M42.81,70.318H29.4a.525.525,0,1,1,0-1.05H42.81a.525.525,0,0,1,0,1.05Z" transform="translate(-28.875 -69.268)" fill="#fff"/>
    </g>
    <g id="Grupo_2650" data-name="Grupo 2650" transform="translate(35.58 23.491)">
      <path id="Trazado_8353" data-name="Trazado 8353" d="M48.561,37a.525.525,0,0,1-.525-.525V24.016a.525.525,0,0,1,1.05,0V36.475A.525.525,0,0,1,48.561,37Z" transform="translate(-48.036 -23.491)" fill="#fff"/>
    </g>
    <g id="Grupo_2651" data-name="Grupo 2651" transform="translate(30.024 31.469)">
      <path id="Trazado_8354" data-name="Trazado 8354" d="M38.24,52.085a.524.524,0,0,1-.341-.126l-5.555-4.747a.525.525,0,0,1,.682-.8l5.188,4.432,4.428-4.4a.525.525,0,0,1,.74.744L38.61,51.932A.523.523,0,0,1,38.24,52.085Z" transform="translate(-32.16 -46.288)" fill="#fff"/>
    </g>
  </g>
</svg>
