<svg xmlns="http://www.w3.org/2000/svg" width="12.282" height="14.498" viewBox="0 0 12.282 14.498">
  <g id="Grupo_4380" data-name="Grupo 4380" transform="translate(-28.875 -23.491)">
    <g id="Grupo_2649" data-name="Grupo 2649" transform="translate(28.875 37.098)">
      <path id="Trazado_8352" data-name="Trazado 8352" d="M40.712,70.16H29.321a.446.446,0,1,1,0-.892h11.39a.446.446,0,0,1,0,.892Z" transform="translate(-28.875 -69.268)" fill="#272727"/>
    </g>
    <g id="Grupo_2650" data-name="Grupo 2650" transform="translate(34.57 23.491)">
      <path id="Trazado_8353" data-name="Trazado 8353" d="M48.482,34.965a.446.446,0,0,1-.446-.446V23.937a.446.446,0,0,1,.892,0V34.52A.446.446,0,0,1,48.482,34.965Z" transform="translate(-48.036 -23.491)" fill="#272727"/>
    </g>
    <g id="Grupo_2651" data-name="Grupo 2651" transform="translate(29.851 30.267)">
      <path id="Trazado_8354" data-name="Trazado 8354" d="M37.324,51.212a.445.445,0,0,1-.29-.107l-4.719-4.032a.446.446,0,0,1,.579-.678L37.3,50.159l3.762-3.741a.446.446,0,0,1,.629.632l-4.053,4.031A.445.445,0,0,1,37.324,51.212Z" transform="translate(-32.16 -46.288)" fill="#272727"/>
    </g>
  </g>
</svg>
