<svg id="Grupo_4094" data-name="Grupo 4094" xmlns="http://www.w3.org/2000/svg" xmlns:xlink="http://www.w3.org/1999/xlink" width="48.243" height="64.012" viewBox="0 0 48.243 64.012">
  <defs>
    <clipPath id="clip-path">
      <rect id="Rectángulo_1268" data-name="Rectángulo 1268" width="48.243" height="64.012" fill="#1e64c7" stroke="#1e64c7" stroke-width="1"/>
    </clipPath>
  </defs>
  <g id="Grupo_4093" data-name="Grupo 4093" clip-path="url(#clip-path)">
    <path id="Trazado_9108" data-name="Trazado 9108" d="M59.685,45.541a.636.636,0,0,0-.514-.433L51.332,43.97l-3.506-7.093a.663.663,0,0,0-1.141,0L43.179,43.97,35.34,45.108a.637.637,0,0,0-.353,1.086l5.672,5.52-1.339,7.794a.637.637,0,0,0,.923.671L47.256,56.5l7.011,3.681a.641.641,0,0,0,.3.073.637.637,0,0,0,.627-.744l-1.339-7.794,5.672-5.52a.637.637,0,0,0,.162-.653m-6.962,5.494a.637.637,0,0,0-.183.564l1.177,6.854-6.166-3.237a.638.638,0,0,0-.592,0l-6.166,3.237L41.971,51.6a.637.637,0,0,0-.183-.564L36.8,46.182l6.891-1a.636.636,0,0,0,.48-.348L47.256,38.6l3.083,6.238a.636.636,0,0,0,.48.348l6.891,1Z" transform="translate(-23.134 -24.302)" fill="#1e64c7" stroke="#1e64c7" stroke-width="1"/>
    <path id="Trazado_9109" data-name="Trazado 9109" d="M39.613,60.089a.807.807,0,0,1-.791-.942l1.324-7.707-5.609-5.459a.8.8,0,0,1-.2-.824.808.808,0,0,1,.65-.548l7.751-1.125L46.2,36.471a.83.83,0,0,1,1.442,0l3.467,7.014,7.751,1.125a.809.809,0,0,1,.65.548.8.8,0,0,1-.2.825L53.7,51.44l1.324,7.707a.8.8,0,0,1-.32.787.818.818,0,0,1-.847.062l-6.934-3.64L39.989,60a.81.81,0,0,1-.376.093m7.309-23.7a.46.46,0,0,0-.421.232l-3.545,7.172-7.925,1.15a.471.471,0,0,0-.379.319.466.466,0,0,0,.119.481l5.735,5.582L39.153,59.2a.469.469,0,0,0,.681.495l7.089-3.721L54.011,59.7a.48.48,0,0,0,.494-.036.467.467,0,0,0,.187-.459l-1.354-7.881,5.735-5.581a.467.467,0,0,0,.119-.482.472.472,0,0,0-.379-.319l-7.926-1.15-3.545-7.172a.46.46,0,0,0-.421-.232M40.238,58.427l1.235-7.188a.47.47,0,0,0-.135-.416l-5.23-5.09,7.228-1.049a.47.47,0,0,0,.354-.256l3.233-6.542,3.233,6.541a.47.47,0,0,0,.353.256l7.228,1.049-5.23,5.09a.47.47,0,0,0-.135.416l1.234,7.188L47.14,55.032a.479.479,0,0,0-.436,0Zm6.684-3.783a.808.808,0,0,1,.373.092l5.866,3.079-1.12-6.52a.806.806,0,0,1,.232-.712h0l4.742-4.616-6.555-.951a.8.8,0,0,1-.606-.439l-2.933-5.934-2.933,5.934a.8.8,0,0,1-.606.439l-6.555.951,4.743,4.616a.806.806,0,0,1,.232.713l-1.12,6.52,5.865-3.079a.813.813,0,0,1,.374-.092" transform="translate(-22.801 -23.97)" fill="#1e64c7" stroke="#1e64c7" stroke-width="1"/>
    <path id="Trazado_9110" data-name="Trazado 9110" d="M24.454.5A23.871,23.871,0,0,0,6.841,40.574V63.54a.636.636,0,0,0,.936.561l16.677-8.907L41.131,64.1a.636.636,0,0,0,.936-.561V40.574A23.871,23.871,0,0,0,24.454.5M15.329,58.624,8.115,62.478V41.86a23.981,23.981,0,0,0,7.215,4.664Zm16.976-.68-7.552-4.033a.633.633,0,0,0-.6,0L16.6,57.944V46.991a23.562,23.562,0,0,0,15.7,0Zm8.488,4.533-7.215-3.853v-12.1a23.981,23.981,0,0,0,7.215-4.664ZM24.454,47.064a22.645,22.645,0,1,1,22.68-22.646,22.689,22.689,0,0,1-22.68,22.646" transform="translate(-0.332 -0.332)" fill="#1e64c7" stroke="#1e64c7" stroke-width="1"/>
    <path id="Trazado_9111" data-name="Trazado 9111" d="M41.1,64.012a.805.805,0,0,1-.379-.1l-16.6-8.864-16.6,8.865a.8.8,0,0,1-1.183-.709v-22.9a24.089,24.089,0,1,1,41.9-16.22A23.974,23.974,0,0,1,41.9,40.307v22.9a.805.805,0,0,1-.8.8M24.122,54.672l.079.042,16.677,8.907a.469.469,0,0,0,.69-.414V40.176l.044-.048A23.754,23.754,0,1,0,.335,24.086a23.642,23.642,0,0,0,6.3,16.042l.045.048V63.207a.469.469,0,0,0,.69.414Zm16.507,7.752-7.549-4.032V46.08l.1-.043a23.744,23.744,0,0,0,7.164-4.632l.282-.263Zm-7.214-4.233,6.879,3.674V41.91A24.05,24.05,0,0,1,33.414,46.3Zm-25.8,4.233V41.142l.282.263a23.747,23.747,0,0,0,7.164,4.632l.1.043V58.393ZM7.95,41.91V61.866l6.879-3.674V46.3A24.059,24.059,0,0,1,7.95,41.91M32.141,57.891l-7.8-4.165a.461.461,0,0,0-.441,0l-7.8,4.165V46.423l.223.077a23.49,23.49,0,0,0,15.593,0l.223-.077Zm-15.7-11v10.44l7.305-3.9a.8.8,0,0,1,.758,0l7.3,3.9V46.893a23.811,23.811,0,0,1-15.368,0m7.684.006A22.813,22.813,0,1,1,46.97,24.086,22.856,22.856,0,0,1,24.122,46.9m0-45.291A22.478,22.478,0,1,0,46.635,24.086,22.521,22.521,0,0,0,24.122,1.609" fill="#1e64c7" stroke="#1e64c7" stroke-width="1"/>
    <path id="Trazado_9112" data-name="Trazado 9112" d="M36.019,17.867a18.1,18.1,0,1,0,18.125,18.1,18.132,18.132,0,0,0-18.125-18.1m0,34.923A16.825,16.825,0,1,1,52.87,35.965,16.858,16.858,0,0,1,36.019,52.79" transform="translate(-11.897 -11.879)" fill="#1e64c7" stroke="#1e64c7" stroke-width="1"/>
    <path id="Trazado_9113" data-name="Trazado 9113" d="M35.686,53.9A18.266,18.266,0,1,1,53.978,35.633,18.3,18.3,0,0,1,35.686,53.9m0-36.2A17.931,17.931,0,1,0,53.643,35.633,17.964,17.964,0,0,0,35.686,17.7m0,34.923A16.992,16.992,0,1,1,52.7,35.633,17.025,17.025,0,0,1,35.686,52.625m0-33.65A16.657,16.657,0,1,0,52.369,35.633,16.689,16.689,0,0,0,35.686,18.976" transform="translate(-11.564 -11.547)" fill="#1e64c7" stroke="#1e64c7" stroke-width="1"/>
  </g>
</svg>
