<svg xmlns="http://www.w3.org/2000/svg" width="17.311" height="17.302" viewBox="0 0 17.311 17.302">
  <path id="Trazado_9062" data-name="Trazado 9062" d="M12.99.014h-.009a.618.618,0,1,0,0,1.236h2.225L5.138,11.318a.618.618,0,1,0,.873.875L16.079,2.125V4.349a.618.618,0,1,0,1.236,0V4.34h0V.733a.577.577,0,0,0,.008-.1.618.618,0,0,0-.618-.618H12.99ZM.631,3.722a.618.618,0,0,0-.618.618h0V16.7a.618.618,0,0,0,.618.618H12.99a.618.618,0,0,0,.618-.618h0V7.365a.618.618,0,0,0-1.236,0v.009h0V16.08H1.249V4.957H10a.618.618,0,1,0,0-1.236H.631Z" transform="translate(-0.013 -0.014)" fill="#53565a"/>
</svg>
