<svg xmlns="http://www.w3.org/2000/svg" xmlns:xlink="http://www.w3.org/1999/xlink" width="78" height="78" viewBox="0 0 78 78">
  <defs>
    <clipPath id="clip-path">
      <rect id="Rectángulo_1255" data-name="Rectángulo 1255" width="78" height="78" transform="translate(0 0.257)" fill="#24abd3"/>
    </clipPath>
  </defs>
  <g id="Grupo_4082" data-name="Grupo 4082" transform="translate(0 -0.257)">
    <g id="Grupo_4081" data-name="Grupo 4081" clip-path="url(#clip-path)">
      <path id="Trazado_9071" data-name="Trazado 9071" d="M151.835,117.65a7.826,7.826,0,1,1,7.826-7.826,7.834,7.834,0,0,1-7.826,7.826m0-13.043a5.217,5.217,0,1,0,5.217,5.217,5.223,5.223,0,0,0-5.217-5.217" transform="translate(-112.704 -79.826)" fill="#24abd3"/>
      <path id="Trazado_9072" data-name="Trazado 9072" d="M141.4,191.738a1.3,1.3,0,0,1-1.3-1.3v-2.609c0-2.877-2.927-5.217-6.523-5.217H123.139c-3.6,0-6.521,2.34-6.521,5.217v2.609a1.3,1.3,0,0,1-2.609,0v-2.609c0-4.315,4.1-7.826,9.13-7.826h10.433c5.035,0,9.132,3.51,9.132,7.826v2.609a1.3,1.3,0,0,1-1.3,1.3" transform="translate(-89.226 -140.87)" fill="#24abd3"/>
      <path id="Trazado_9073" data-name="Trazado 9073" d="M139.313,219.912a1.3,1.3,0,0,1-1.3-1.3v-1.3a1.3,1.3,0,1,1,2.609,0v1.3a1.3,1.3,0,0,1-1.3,1.3" transform="translate(-108.008 -169.045)" fill="#24abd3"/>
      <path id="Trazado_9074" data-name="Trazado 9074" d="M211.313,219.912a1.3,1.3,0,0,1-1.3-1.3v-1.3a1.3,1.3,0,1,1,2.609,0v1.3a1.3,1.3,0,0,1-1.3,1.3" transform="translate(-164.357 -169.045)" fill="#24abd3"/>
      <path id="Trazado_9075" data-name="Trazado 9075" d="M100.174,122.345a22.173,22.173,0,1,1,22.173-22.173,22.2,22.2,0,0,1-22.173,22.173m0-41.737a19.564,19.564,0,1,0,19.564,19.564,19.587,19.587,0,0,0-19.564-19.564" transform="translate(-61.045 -61.043)" fill="#24abd3"/>
      <path id="Trazado_9076" data-name="Trazado 9076" d="M319.305,91.042a1.3,1.3,0,0,1-1.3-1.3V79.3a1.3,1.3,0,0,1,2.609,0V89.738a1.3,1.3,0,0,1-1.3,1.3" transform="translate(-248.873 -61.043)" fill="#24abd3"/>
      <path id="Trazado_9077" data-name="Trazado 9077" d="M233.74,32.608H223.305a1.3,1.3,0,1,1,0-2.609H233.74a1.3,1.3,0,1,1,0,2.609" transform="translate(-173.742 -23.478)" fill="#24abd3"/>
      <path id="Trazado_9078" data-name="Trazado 9078" d="M281.74,43.042a1.3,1.3,0,0,1-1.3-1.3,9.141,9.141,0,0,0-9.13-9.13,1.3,1.3,0,0,1,0-2.609,11.752,11.752,0,0,1,11.739,11.739,1.3,1.3,0,0,1-1.3,1.3" transform="translate(-211.308 -23.478)" fill="#24abd3"/>
      <path id="Trazado_9079" data-name="Trazado 9079" d="M295.825,115.824a1.3,1.3,0,0,1-.815-.286l-6.521-5.217a1.3,1.3,0,1,1,1.63-2.036l5.706,4.565,5.706-4.565a1.3,1.3,0,1,1,1.63,2.036l-6.521,5.217a1.3,1.3,0,0,1-.815.286" transform="translate(-225.393 -84.521)" fill="#24abd3"/>
      <path id="Trazado_9080" data-name="Trazado 9080" d="M233.74,320.608H223.305a1.3,1.3,0,1,1,0-2.609H233.74a1.3,1.3,0,0,1,0,2.609" transform="translate(-173.742 -248.872)" fill="#24abd3"/>
      <path id="Trazado_9081" data-name="Trazado 9081" d="M319.305,235.042a1.3,1.3,0,0,1-1.3-1.3V223.3a1.3,1.3,0,1,1,2.609,0v10.434a1.3,1.3,0,0,1-1.3,1.3" transform="translate(-248.873 -173.74)" fill="#24abd3"/>
      <path id="Trazado_9082" data-name="Trazado 9082" d="M271.305,283.042a1.3,1.3,0,1,1,0-2.609,9.141,9.141,0,0,0,9.13-9.13,1.3,1.3,0,0,1,2.609,0,11.752,11.752,0,0,1-11.739,11.739" transform="translate(-211.308 -211.306)" fill="#24abd3"/>
      <path id="Trazado_9083" data-name="Trazado 9083" d="M222.525,303.653a1.3,1.3,0,0,1-1.019-.489l-5.217-6.521a1.3,1.3,0,0,1,0-1.63l5.217-6.521a1.3,1.3,0,1,1,2.036,1.63l-4.565,5.706,4.565,5.706a1.3,1.3,0,0,1-1.017,2.12" transform="translate(-169.047 -225.396)" fill="#24abd3"/>
      <path id="Trazado_9084" data-name="Trazado 9084" d="M31.305,53.476a1.3,1.3,0,0,1-1.3-1.3V41.738A11.753,11.753,0,0,1,41.74,30H52.174a1.3,1.3,0,1,1,0,2.609H41.74a9.14,9.14,0,0,0-9.13,9.13V52.172a1.3,1.3,0,0,1-1.3,1.3" transform="translate(-23.479 -23.478)" fill="#24abd3"/>
      <path id="Trazado_9085" data-name="Trazado 9085" d="M109.3,15.651a1.3,1.3,0,0,1-1.017-2.119l4.565-5.707-4.565-5.707A1.3,1.3,0,1,1,110.322.489l5.217,6.521a1.3,1.3,0,0,1,0,1.629l-5.217,6.521a1.3,1.3,0,0,1-1.019.49" transform="translate(-84.523 0)" fill="#24abd3"/>
      <path id="Trazado_9086" data-name="Trazado 9086" d="M31.305,235.042a1.3,1.3,0,0,1-1.3-1.3V223.3a1.3,1.3,0,1,1,2.609,0v10.434a1.3,1.3,0,0,1-1.3,1.3" transform="translate(-23.479 -173.74)" fill="#24abd3"/>
      <path id="Trazado_9087" data-name="Trazado 9087" d="M89.74,320.608H79.305a1.3,1.3,0,0,1,0-2.609H89.74a1.3,1.3,0,0,1,0,2.609" transform="translate(-61.045 -248.872)" fill="#24abd3"/>
      <path id="Trazado_9088" data-name="Trazado 9088" d="M41.74,283.042A11.752,11.752,0,0,1,30,271.3a1.3,1.3,0,0,1,2.609,0,9.141,9.141,0,0,0,9.13,9.13,1.3,1.3,0,1,1,0,2.609" transform="translate(-23.479 -211.306)" fill="#24abd3"/>
      <path id="Trazado_9089" data-name="Trazado 9089" d="M14.347,223.827a1.3,1.3,0,0,1-.813-.285l-5.707-4.567-5.707,4.567A1.3,1.3,0,0,1,.49,221.5l6.521-5.217a1.307,1.307,0,0,1,1.629,0l6.521,5.217a1.3,1.3,0,0,1-.815,2.323" transform="translate(0 -169.047)" fill="#24abd3"/>
    </g>
  </g>
</svg>
