<svg xmlns="http://www.w3.org/2000/svg" xmlns:xlink="http://www.w3.org/1999/xlink" width="72" height="72" viewBox="0 0 72 72">
  <defs>
    <clipPath id="clip-path">
      <rect id="Rectángulo_1255" data-name="Rectángulo 1255" width="72" height="72" transform="translate(0 0)" fill="#24abd3"/>
    </clipPath>
  </defs>
  <g id="Grupo_4082" data-name="Grupo 4082" transform="translate(0 -0.257)">
    <g id="Grupo_4081" data-name="Grupo 4081" transform="translate(0 0.257)" clip-path="url(#clip-path)">
      <path id="Trazado_9071" data-name="Trazado 9071" d="M151.26,116.5a7.251,7.251,0,1,1,7.251-7.251,7.259,7.259,0,0,1-7.251,7.251m0-12.085a4.834,4.834,0,1,0,4.834,4.834,4.839,4.839,0,0,0-4.834-4.834" transform="translate(-115.004 -81.694)" fill="#24abd3"/>
      <path id="Trazado_9072" data-name="Trazado 9072" d="M139.387,190.875a1.208,1.208,0,0,1-1.208-1.208V187.25c0-2.665-2.712-4.834-6.044-4.834h-9.666c-3.332,0-6.042,2.168-6.042,4.834v2.417a1.208,1.208,0,1,1-2.417,0V187.25c0-4,3.795-7.251,8.459-7.251h9.666c4.666,0,8.461,3.252,8.461,7.251v2.417a1.208,1.208,0,0,1-1.208,1.208" transform="translate(-91.046 -143.983)" fill="#24abd3"/>
      <path id="Trazado_9073" data-name="Trazado 9073" d="M139.217,219.624a1.208,1.208,0,0,1-1.208-1.208v-1.208a1.208,1.208,0,1,1,2.417,0v1.208a1.208,1.208,0,0,1-1.208,1.208" transform="translate(-110.212 -172.733)" fill="#24abd3"/>
      <path id="Trazado_9074" data-name="Trazado 9074" d="M211.217,219.624a1.208,1.208,0,0,1-1.208-1.208v-1.208a1.208,1.208,0,1,1,2.417,0v1.208a1.208,1.208,0,0,1-1.208,1.208" transform="translate(-167.711 -172.733)" fill="#24abd3"/>
      <path id="Trazado_9075" data-name="Trazado 9075" d="M98.545,119.087a20.544,20.544,0,1,1,20.544-20.544,20.568,20.568,0,0,1-20.544,20.544m0-38.671a18.127,18.127,0,1,0,18.127,18.127A18.148,18.148,0,0,0,98.545,80.416" transform="translate(-62.291 -62.527)" fill="#24abd3"/>
      <path id="Trazado_9076" data-name="Trazado 9076" d="M319.209,90.084A1.208,1.208,0,0,1,318,88.875V79.207a1.208,1.208,0,1,1,2.417,0v9.668a1.208,1.208,0,0,1-1.208,1.208" transform="translate(-253.952 -62.527)" fill="#24abd3"/>
      <path id="Trazado_9077" data-name="Trazado 9077" d="M232.877,32.416h-9.668a1.208,1.208,0,0,1,0-2.417h9.668a1.208,1.208,0,1,1,0,2.417" transform="translate(-177.287 -24.195)" fill="#24abd3"/>
      <path id="Trazado_9078" data-name="Trazado 9078" d="M280.877,42.084a1.208,1.208,0,0,1-1.208-1.208,8.469,8.469,0,0,0-8.459-8.459,1.208,1.208,0,0,1,0-2.417,10.889,10.889,0,0,1,10.876,10.876,1.208,1.208,0,0,1-1.208,1.208" transform="translate(-215.619 -24.195)" fill="#24abd3"/>
      <path id="Trazado_9079" data-name="Trazado 9079" d="M295.25,115.249a1.2,1.2,0,0,1-.755-.265l-6.042-4.834a1.209,1.209,0,1,1,1.511-1.887l5.287,4.23,5.287-4.23a1.209,1.209,0,1,1,1.511,1.887l-6.042,4.834a1.2,1.2,0,0,1-.755.265" transform="translate(-229.992 -86.484)" fill="#24abd3"/>
      <path id="Trazado_9080" data-name="Trazado 9080" d="M232.877,320.416h-9.668a1.208,1.208,0,0,1,0-2.417h9.668a1.208,1.208,0,1,1,0,2.417" transform="translate(-177.287 -254.188)" fill="#24abd3"/>
      <path id="Trazado_9081" data-name="Trazado 9081" d="M319.209,234.084A1.208,1.208,0,0,1,318,232.875v-9.668a1.208,1.208,0,1,1,2.417,0v9.668a1.208,1.208,0,0,1-1.208,1.208" transform="translate(-253.952 -177.524)" fill="#24abd3"/>
      <path id="Trazado_9082" data-name="Trazado 9082" d="M271.209,282.084a1.208,1.208,0,1,1,0-2.417,8.47,8.47,0,0,0,8.459-8.459,1.208,1.208,0,0,1,2.417,0,10.888,10.888,0,0,1-10.876,10.876" transform="translate(-215.619 -215.856)" fill="#24abd3"/>
      <path id="Trazado_9083" data-name="Trazado 9083" d="M222.045,302.5a1.2,1.2,0,0,1-.944-.453l-4.834-6.042a1.209,1.209,0,0,1,0-1.511l4.834-6.042a1.208,1.208,0,1,1,1.887,1.511l-4.23,5.287,4.23,5.287a1.208,1.208,0,0,1-.943,1.964" transform="translate(-172.497 -230.234)" fill="#24abd3"/>
      <path id="Trazado_9084" data-name="Trazado 9084" d="M31.209,51.752A1.209,1.209,0,0,1,30,50.543V40.875A10.889,10.889,0,0,1,40.877,30h9.668a1.208,1.208,0,1,1,0,2.417H40.877a8.469,8.469,0,0,0-8.459,8.459v9.668a1.209,1.209,0,0,1-1.208,1.208" transform="translate(-23.958 -24.195)" fill="#24abd3"/>
      <path id="Trazado_9085" data-name="Trazado 9085" d="M109.208,14.5a1.209,1.209,0,0,1-.943-1.963l4.23-5.288-4.23-5.288A1.208,1.208,0,1,1,110.152.453L114.986,6.5a1.207,1.207,0,0,1,0,1.509l-4.834,6.042a1.2,1.2,0,0,1-.944.454" transform="translate(-86.247 -0.238)" fill="#24abd3"/>
      <path id="Trazado_9086" data-name="Trazado 9086" d="M31.209,234.084A1.208,1.208,0,0,1,30,232.875v-9.668a1.208,1.208,0,0,1,2.417,0v9.668a1.208,1.208,0,0,1-1.208,1.208" transform="translate(-23.958 -177.524)" fill="#24abd3"/>
      <path id="Trazado_9087" data-name="Trazado 9087" d="M88.877,320.416H79.209a1.208,1.208,0,0,1,0-2.417h9.668a1.208,1.208,0,0,1,0,2.417" transform="translate(-62.291 -254.188)" fill="#24abd3"/>
      <path id="Trazado_9088" data-name="Trazado 9088" d="M40.877,282.084A10.889,10.889,0,0,1,30,271.207a1.208,1.208,0,0,1,2.417,0,8.469,8.469,0,0,0,8.459,8.459,1.208,1.208,0,1,1,0,2.417" transform="translate(-23.958 -215.856)" fill="#24abd3"/>
      <path id="Trazado_9089" data-name="Trazado 9089" d="M13.293,223.252a1.2,1.2,0,0,1-.754-.264l-5.288-4.231-5.288,4.231A1.209,1.209,0,0,1,.454,221.1L6.5,216.265a1.211,1.211,0,0,1,1.509,0l6.042,4.834a1.209,1.209,0,0,1-.755,2.153" transform="translate(0 -172.735)" fill="#24abd3"/>
    </g>
  </g>
</svg>
