<svg xmlns="http://www.w3.org/2000/svg" xmlns:xlink="http://www.w3.org/1999/xlink" width="134.377" height="50.816" viewBox="0 0 134.377 50.816">
  <defs>
    <clipPath id="clip-path">
      <rect id="Rectángulo_1112" data-name="Rectángulo 1112" width="134.377" height="50.816" fill="#272727"/>
    </clipPath>
  </defs>
  <g id="Grupo_3866" data-name="Grupo 3866" opacity="0.527">
    <g id="Grupo_3865" data-name="Grupo 3865" transform="translate(0 0)" clip-path="url(#clip-path)">
      <path id="Trazado_8990" data-name="Trazado 8990" d="M27.011,9.273v22.35H22.834c-4.94,0-4.79-3.566-4.79-3.566V5.547h4.5c4.611,0,4.464,3.726,4.464,3.726" transform="translate(12.726 3.912)" fill="#272727"/>
      <path id="Trazado_8991" data-name="Trazado 8991" d="M28.526,34.509c-3.883,0-3.909-2.993-3.909-2.993V1.464H35.654L46.486,21.242V4.641c0-3.561,4.014-3.177,4.014-3.177h4.391V34.509H44.826l-11.816-21v21Z" transform="translate(17.362 1.024)" fill="#272727"/>
      <path id="Trazado_8992" data-name="Trazado 8992" d="M68.039,26.856l-1.165,4.657S66.81,34.5,61.469,34.5H56.791L65.838,5.441s.946-3.985,3.885-3.982H79.4L89.8,34.5H84.654c-5.218,0-5.305-2.991-5.305-2.991l-1.472-4.657Zm8.133-6.57-1.608-5.933c-.518-1.862-1.19-4.56-1.709-6.521h-.1c-.518,1.961-1.039,4.707-1.554,6.569l-1.5,5.885Z" transform="translate(40.054 1.029)" fill="#272727"/>
      <path id="Trazado_8993" data-name="Trazado 8993" d="M27.425,4.175c0,2.355-1.866,4.217-4.819,4.217-2.9,0-4.715-1.862-4.715-4.217,0-2.4,1.864-4.168,4.766-4.168s4.717,1.765,4.768,4.168" transform="translate(12.618 0.005)" fill="#272727"/>
      <path id="Trazado_8994" data-name="Trazado 8994" d="M28.161.068C27.51.022,26.867,0,26.212,0A26.624,26.624,0,0,0,7.317,7.287,25.408,25.408,0,0,0,0,25.646C0,32.75,2.355,38.923,6.808,43.5a25.337,25.337,0,0,0,18.429,7.314,31.832,31.832,0,0,0,9.333-1.383c3.718-1.335,5.215-3.226,5.215-6.045,0,0,.012-6.9-.044-6.85a21.426,21.426,0,0,1-14.5,5.535c-9.688,0-16-6.5-16-16.427,0-10.259,6.97-16.9,16.973-16.9a18.029,18.029,0,0,1,1.951.092Z" transform="translate(0 0)" fill="#272727"/>
      <path id="Trazado_8995" data-name="Trazado 8995" d="M44.2,29.3a2.9,2.9,0,0,1,3.939-2.109,23.177,23.177,0,0,0,5.98.89c3.233,0,4.8-1.039,4.8-2.715,0-1.629-1.565-2.565-5.529-3.847-5.945-1.975-9.855-5.082-9.855-10.017,0-5.871,5.213-10.411,14.079-10.411a25.431,25.431,0,0,1,9.747,1.533s-1,3.179-1.316,4.181a3.067,3.067,0,0,1-4.024,2.067,16.683,16.683,0,0,0-4.51-.529c-2.868,0-4.432.987-4.432,2.468,0,1.676,1.876,2.369,6.31,3.948,6.311,2.169,9.178,5.377,9.178,10.015,0,5.723-4.746,10.658-15.02,10.658-4.222,0-8.549-.89-10.53-1.879Z" transform="translate(30.335 0.77)" fill="#272727"/>
      <path id="Trazado_8996" data-name="Trazado 8996" d="M78.45,21.524a2.131,2.131,0,1,1-.01,0Zm-.01.315a1.714,1.714,0,1,0,.01,3.428,1.714,1.714,0,0,0,0-3.428Zm-.4,2.889h-.382V22.47a4.485,4.485,0,0,1,.677-.055,1.3,1.3,0,0,1,.74.171.532.532,0,0,1,.22.467.577.577,0,0,1-.466.551v.017c.208.036.351.215.4.547a1.917,1.917,0,0,0,.152.559h-.4a1.643,1.643,0,0,1-.16-.576c-.058-.286-.21-.394-.515-.394h-.264Zm0-1.25h.275c.314,0,.582-.109.582-.389,0-.2-.153-.4-.582-.4a2.4,2.4,0,0,0-.275.017Z" transform="translate(53.826 15.181)" fill="#272727"/>
    </g>
  </g>
</svg>
