<svg id="Grupo_3862" data-name="Grupo 3862" xmlns="http://www.w3.org/2000/svg" xmlns:xlink="http://www.w3.org/1999/xlink" width="230.785" height="34.018" viewBox="0 0 230.785 34.018">
  <defs>
    <clipPath id="clip-path">
      <rect id="Rectángulo_1109" data-name="Rectángulo 1109" width="230.785" height="34.018" fill="#272727"/>
    </clipPath>
  </defs>
  <g id="Grupo_3861" data-name="Grupo 3861" clip-path="url(#clip-path)">
    <path id="Trazado_8975" data-name="Trazado 8975" d="M187.648,24.451a.528.528,0,0,1,.322.1.389.389,0,0,1,.159.242.654.654,0,0,1,0,.279.411.411,0,0,1-.162.237.535.535,0,0,1-.331.1h-.8v-.954Zm.278,1.356a.889.889,0,0,0,.612-.374.93.93,0,0,0,.171-.635.948.948,0,0,0-.318-.6,1.044,1.044,0,0,0-.743-.263h-1.366V26.9h.548V25.869h.517l.826,1.026h.6v-.111l-.85-.986Zm-2.813-.363a2.407,2.407,0,0,0,.607,1.684,2.4,2.4,0,0,0,3.318,0,2.383,2.383,0,0,0,.612-1.676,2.407,2.407,0,0,0-.607-1.684,2.41,2.41,0,0,0-3.326,0,2.426,2.426,0,0,0-.6,1.692Zm4.367-2.038a3.128,3.128,0,0,1,0,4.1,3.077,3.077,0,0,1-4.2,0,3.117,3.117,0,0,1,0-4.1,3.087,3.087,0,0,1,4.2,0" transform="translate(40.538 4.961)" fill="#272727"/>
    <path id="Trazado_8976" data-name="Trazado 8976" d="M190.2.635a5.439,5.439,0,0,0-5.4,3.707l-4.829,13.24-2.83-12.517a5.342,5.342,0,0,0-5.608-4.43h-3.493L156.225,33.117h4.663c3,0,4.432-1.125,5.655-4.447l4.637-12.826s2.145,9.641,2.86,12.831a5.478,5.478,0,0,0,5.624,4.442h3.329L194.8.635Z" transform="translate(34.324 0.14)" fill="#272727"/>
    <path id="Trazado_8977" data-name="Trazado 8977" d="M152.558,20.964C151.192,24.677,149.6,26,146.442,26H143.12c-3.383,0-4.331-2.469-3.383-5.035l2.8-7.909c1.366-3.712,2.96-5.031,6.116-5.031h3.323c3.383,0,4.331,2.465,3.383,5.031ZM153.107,0h-3.924a15.046,15.046,0,0,0-14.151,9.739L131.6,19.267a10.974,10.974,0,0,0,10.386,14.751h3.924a15.049,15.049,0,0,0,14.151-9.744l3.429-9.522A10.932,10.932,0,0,0,153.107,0" transform="translate(28.771)" fill="#272727"/>
    <path id="Trazado_8978" data-name="Trazado 8978" d="M68.6,27.8,65.3,33.116H86.309L80.735.635H76.385a5.775,5.775,0,0,0-4.9,2.677l-18.488,29.8h6.4c2.532,0,3.691-.97,5.8-4.365,2.361-3.8,9.437-15.209,9.437-15.209l1.984,11.54H73.5A5.765,5.765,0,0,0,68.6,27.8" transform="translate(11.643 0.14)" fill="#272727"/>
    <path id="Trazado_8979" data-name="Trazado 8979" d="M117.392.631h-8.371a5.8,5.8,0,0,0-4.279,1.875l-4.717,5.172L98.438,3.916A5.72,5.72,0,0,0,93.219.635H88.231l5.689,13.742-17.1,18.74h8.462a5.789,5.789,0,0,0,4.321-1.923l7.793-8.6,3.488,8.259a3.9,3.9,0,0,0,3.559,2.269H110.7L103.46,15.924Z" transform="translate(16.879 0.139)" fill="#272727"/>
    <path id="Trazado_8980" data-name="Trazado 8980" d="M116.459.635h0a5.661,5.661,0,0,0-5.431,3.808L109.568,8.65h9.872l-8.889,24.467h4.628a6.453,6.453,0,0,0,5.661-4.44L128.153,8.65h5.428a5.706,5.706,0,0,0,5.4-3.731L140.532.635Z" transform="translate(24.073 0.14)" fill="#272727"/>
    <path id="Trazado_8981" data-name="Trazado 8981" d="M43.587,19.028l2.991,10.377c.777,2.693,2.985,3.712,5.4,3.712h3.638l-3.232-8.809c3.043-.24,7.632-3.057,9.564-8.323C64.8,8.223,59.261.635,52.293.635h-11.2L29.276,33.117h4.643a5.458,5.458,0,0,0,5.4-3.731C41.21,24.2,46.88,8.646,46.88,8.646l2.581-.023c3.81,0,5.838,3.174,4.647,6.412-1,2.724-3.884,3.97-8.437,3.97Z" transform="translate(6.432 0.14)" fill="#272727"/>
    <path id="Trazado_8982" data-name="Trazado 8982" d="M26.664.637H0L1.556,4.91A6.059,6.059,0,0,0,6.965,8.645h19.1A3.431,3.431,0,0,1,29.35,13.2l-3.04,8.418A5.341,5.341,0,0,1,21.283,25.1l-7.4,0c.529-1.514,3.474-9.574,5.083-13.966l.1-.267H14.426a5.75,5.75,0,0,0-5.394,3.7L4.68,26.49A5.168,5.168,0,0,0,5.4,31.171a5.3,5.3,0,0,0,4.357,1.953H22.842a11.073,11.073,0,0,0,10.627-7.343l3.845-10.513C40.087,7.687,34.824.642,26.664.637" transform="translate(0 0.14)" fill="#272727"/>
  </g>
</svg>
