<?xml version="1.0" encoding="UTF-8"?><svg id="a" xmlns="http://www.w3.org/2000/svg" viewBox="0 0 255.71 61.1"><g id="b" transform="translate(0 0)"><path id="c" d="M255.71,55.73c.01-2.96-2.38-5.38-5.35-5.39s-5.38,2.38-5.39,5.35c-.01,2.96,2.38,5.38,5.35,5.39h.02c2.96,0,5.36-2.39,5.37-5.35m-.99,0c0,2.42-1.95,4.39-4.37,4.4-2.42,0-4.39-1.95-4.4-4.37,0-2.42,1.95-4.39,4.37-4.4h.02c2.42,0,4.38,1.95,4.38,4.36h0m-1.7,.43c.65-.79,.53-1.96-.26-2.61l-.04-.04c-.5-.32-1.08-.47-1.66-.44h-3.83v5.32h.93v-1.49h2.56l1.49,1.49h1.38l-1.62-1.61c.41-.1,.78-.32,1.06-.63m-.56-1.16c0,.3-.14,.59-.4,.75-.26,.16-.56,.24-.87,.23h-3.05v-1.97h3.05c.84,0,1.27,.33,1.27,1M184.1,17.31c-.06-1.46,.6-2.86,1.76-3.75,1.29-1,2.89-1.52,4.53-1.46h45.76V.02h-45.76c-4.9-.16-9.69,1.42-13.54,4.45-3.85,3.09-6.04,7.81-5.9,12.74-.15,4.96,2.03,9.71,5.9,12.83,3.85,3.03,8.64,4.61,13.54,4.45h28.05c2.4-.07,4.78,.52,6.88,1.7,2.02,1.04,3.28,3.14,3.24,5.41,.04,2.3-1.17,4.44-3.16,5.6-2.11,1.23-4.52,1.85-6.95,1.78h-46.29v12.07h46.29c5.42,.18,10.72-1.59,14.94-4.98,4.18-3.52,6.51-8.76,6.32-14.21,.17-5.48-2.15-10.73-6.32-14.29-4.18-3.5-9.5-5.34-14.95-5.16h-28.05c-1.62,.05-3.22-.44-4.53-1.39-1.17-.87-1.83-2.27-1.74-3.73m-34.62,43.78h12.12V.02h-12.12V61.08Zm-48.03,0h38.7V26.6h-40.35v11.2h28.24v11.2h-26.59c-5,.18-9.86-1.64-13.51-5.05-3.53-3.46-5.43-8.25-5.23-13.18-.19-5.01,1.7-9.88,5.23-13.45,3.6-3.51,8.48-5.4,13.51-5.23h34.52V.02h-34.51c-8.2-.3-16.18,2.66-22.21,8.23-5.82,5.66-8.97,13.53-8.64,21.65-.26,8.31,2.88,16.38,8.7,22.32,5.84,5.89,13.86,9.1,22.15,8.86m-49.17-20.37c10.41-10.37,11.94-26.7,3.63-38.82L31.5,.64c3.96,1.63,7.57,4.02,10.61,7.05,6.31,6.28,6.33,16.49,.05,22.8l-.05,.05-10.19,10.17c5.64,5.61,14.75,5.61,20.39,0m-11.46-31.73C30.4-1.41,14.07-2.94,1.89,5.33L.64,29.67c1.64-3.95,4.04-7.53,7.06-10.55,6.34-6.31,16.59-6.31,22.93,0l10.19,10.16c5.61-5.58,5.63-14.65,.05-20.26l-.05-.05M8.97,20.38C-1.45,30.76-2.97,47.08,5.34,59.21l24.39,1.24c-3.95-1.63-7.54-4.02-10.57-7.05-6.32-6.27-6.35-16.47-.08-22.79l.07-.07,10.2-10.17c-5.64-5.61-14.75-5.61-20.39,0m11.46,31.76c10.44,10.38,26.77,11.91,38.95,3.64l1.25-24.34c-1.63,3.95-4.03,7.53-7.06,10.54-6.34,6.31-16.59,6.31-22.93,0l-10.21-10.15c-5.61,5.58-5.63,14.66-.05,20.27l.05,.05" style="fill:#939598;"/></g></svg>