<svg xmlns="http://www.w3.org/2000/svg" xmlns:xlink="http://www.w3.org/1999/xlink" width="130.691" height="38.221" viewBox="0 0 130.691 38.221">
  <defs>
    <clipPath id="clip-path">
      <rect id="Rectángulo_3004" data-name="Rectángulo 3004" width="130.691" height="38.221" fill="none"/>
    </clipPath>
  </defs>
  <g id="Grupo_4418" data-name="Grupo 4418" transform="translate(0 0)">
    <g id="Grupo_4385" data-name="Grupo 4385" transform="translate(0 0)" clip-path="url(#clip-path)">
      <path id="Trazado_9172" data-name="Trazado 9172" d="M101.713,14.04c-3.121-.346-4.3-.741-4.3-2.656,0-1.557,1.014-2.15,2.642-2.15h28.288L129.968,0H101.035C89.079,0,87.158,7.381,86.721,10.376a10.456,10.456,0,0,0,1.781,7.79c1.679,2.406,4.983,3.807,9.417,4.416,4.737.651,16.341,1.466,18.257,1.664,2.792.29,3.7.795,3.7,2.432a2.481,2.481,0,0,1-2.653,2.3H84.867l-1.625,9.234h33.189c11.956,0,13.876-7.555,14.314-10.551a10.457,10.457,0,0,0-1.781-7.791c-1.679-2.405-4.879-4.059-9.335-4.468-7.354-.674-13.985-.923-17.915-1.358" transform="translate(-9.468 0)" fill="#002e5f"/>
      <path id="Trazado_9173" data-name="Trazado 9173" d="M144.94,38.634c0-.6-.446-.98-1.23-.98h-1.418v3.069h.656V39.574h.3l.931,1.149h.784l-1-1.157c.623-.073.98-.43.98-.931m-1.992.413v-.819h.755c.346,0,.566.137.566.406s-.221.413-.566.413Z" transform="translate(-16.184 -4.282)" fill="#002e5f"/>
      <path id="Trazado_9174" data-name="Trazado 9174" d="M143.237,35.672a3.3,3.3,0,1,0,3.362,3.3,3.324,3.324,0,0,0-3.362-3.3m0,5.878a2.571,2.571,0,1,1,2.551-2.575,2.562,2.562,0,0,1-2.551,2.575" transform="translate(-15.907 -4.057)" fill="#002e5f"/>
      <path id="Trazado_9175" data-name="Trazado 9175" d="M66.589,0,59.852,38.208H70.518L77.255,0Z" transform="translate(-6.808 0)" fill="#002e5f"/>
      <path id="Trazado_9176" data-name="Trazado 9176" d="M50.382,0H23.343C7.654,0,0,9.078,0,21.786,0,32.351,7.006,38.207,18.994,38.207H44l3.79-21.493H25.354l-.031.171L39.006,28.8H20.5c-7.952,0-10.141-4.014-9.478-9.848.6-5.266,3.09-9.715,11.071-9.715H48.754Z" transform="translate(0 0)" fill="#002e5f"/>
    </g>
  </g>
</svg>
