<svg id="Grupo_3794" data-name="Grupo 3794" xmlns="http://www.w3.org/2000/svg" xmlns:xlink="http://www.w3.org/1999/xlink" width="137" height="32.715" viewBox="0 0 137 32.715">
  <defs>
    <clipPath id="clip-path">
      <rect id="Rectángulo_969" data-name="Rectángulo 969" width="137" height="32.715" fill="#fff"/>
    </clipPath>
  </defs>
  <g id="Grupo_3767" data-name="Grupo 3767" transform="translate(0 0)" clip-path="url(#clip-path)">
    <path id="Trazado_8947" data-name="Trazado 8947" d="M137,29.847a2.876,2.876,0,1,0-2.877,2.866A2.872,2.872,0,0,0,137,29.847m-.529,0a2.348,2.348,0,1,1-2.348-2.339,2.343,2.343,0,0,1,2.348,2.339m-.909.228a.992.992,0,0,0-.164-1.415,1.527,1.527,0,0,0-.892-.238h-2.052v2.85h.5v-.8h1.369l.8.8h.737l-.866-.86a1.125,1.125,0,0,0,.57-.337m-.3-.622a.459.459,0,0,1-.213.4.843.843,0,0,1-.465.121h-1.633V28.918h1.633q.678,0,.678.535M98.632,9.261a2.4,2.4,0,0,1,.943-2.009A3.773,3.773,0,0,1,102,6.468h24.516V0H102a11.128,11.128,0,0,0-7.255,2.386,8.447,8.447,0,0,0-3.16,6.828,8.5,8.5,0,0,0,3.16,6.874A11.128,11.128,0,0,0,102,18.473H117.03a7.049,7.049,0,0,1,3.684.912,3.192,3.192,0,0,1,1.734,2.9,3.409,3.409,0,0,1-1.692,3,7.007,7.007,0,0,1-3.726.955h-24.8v6.468h24.8a12.129,12.129,0,0,0,8.007-2.669,9.54,9.54,0,0,0,3.388-7.615,9.668,9.668,0,0,0-3.384-7.657,11.865,11.865,0,0,0-8.012-2.766H102a3.932,3.932,0,0,1-2.429-.745,2.326,2.326,0,0,1-.934-2M80.086,32.713h6.491V0H80.086Zm-25.731,0H75.088V14.239H53.468v6H68.6v6H54.355a10.076,10.076,0,0,1-7.241-2.708,9.35,9.35,0,0,1-2.8-7.064,9.719,9.719,0,0,1,2.8-7.208,9.889,9.889,0,0,1,7.236-2.8H72.846V0H54.355a16.646,16.646,0,0,0-11.9,4.41,15.316,15.316,0,0,0-4.628,11.6,16.378,16.378,0,0,0,4.662,11.96,16.051,16.051,0,0,0,11.868,4.746M28.015,21.8A16.327,16.327,0,0,0,29.958,1L16.872.334a17.415,17.415,0,0,1,5.682,3.775,8.636,8.636,0,0,1,0,12.242L17.092,21.8a7.741,7.741,0,0,0,10.923,0m-6.139-17A16.468,16.468,0,0,0,1.007,2.847L.338,15.883A17.353,17.353,0,0,1,4.123,10.23a8.708,8.708,0,0,1,12.286,0l5.462,5.441a7.675,7.675,0,0,0,0-10.879M4.8,10.91a16.328,16.328,0,0,0-1.942,20.8l13.068.665A17.4,17.4,0,0,1,10.265,28.6a8.633,8.633,0,0,1-.006-12.247l5.467-5.448a7.743,7.743,0,0,0-10.923,0m6.138,17.014A16.472,16.472,0,0,0,31.808,29.87l.669-13.042a17.319,17.319,0,0,1-3.783,5.647,8.706,8.706,0,0,1-12.285,0l-5.468-5.436a7.678,7.678,0,0,0,0,10.885" transform="translate(0 0)" fill="#fff"/>
  </g>
</svg>
