<svg xmlns="http://www.w3.org/2000/svg" xmlns:xlink="http://www.w3.org/1999/xlink" width="273.166" height="39.211" viewBox="0 0 273.166 39.211">
  <defs>
    <clipPath id="clip-path">
      <rect id="Rect치ngulo_1111" data-name="Rect치ngulo 1111" width="273.166" height="39.211" fill="#1c1a1a"/>
    </clipPath>
  </defs>
  <g id="Grupo_3864" data-name="Grupo 3864" opacity="0.998">
    <g id="Grupo_3863" data-name="Grupo 3863" transform="translate(0 0)" clip-path="url(#clip-path)">
      <path id="Trazado_8983" data-name="Trazado 8983" d="M0,29.824V.143H7.769V21.337L20.6,4.588S23.615.442,25.6.442H32.28S12.092,28.086,11.741,28.615a3.017,3.017,0,0,1-2.53,1.208Z" transform="translate(0 0.107)" fill="#1c1a1a"/>
      <rect id="Rect치ngulo_1110" data-name="Rect치ngulo 1110" width="8.311" height="29.291" transform="translate(37.396 0.606)" fill="#1c1a1a"/>
      <path id="Trazado_8984" data-name="Trazado 8984" d="M28.973.178H50.711V3.487H43.965V29.827H35.784V3.613H29.036Z" transform="translate(21.611 0.134)" fill="#1c1a1a"/>
      <path id="Trazado_8985" data-name="Trazado 8985" d="M52.637,3.01H63.058c7.045,0,7.045,10.727,0,10.727H52.637ZM44.632.246V29.81h8.005V15.776h6.631s.957,0,2.526,2.347S74.679,35.772,74.679,35.772s2.167,3.256,5.356,3.256h148.67V35.721H88.344a6.575,6.575,0,0,1-5.231-2.053C80.825,31.2,69.323,15.961,69.323,15.961c8.847-.543,9.7-14.392.482-15.594C68.24.246,44.632.246,44.632.246" transform="translate(33.292 0.184)" fill="#1c1a1a"/>
      <path id="Trazado_8986" data-name="Trazado 8986" d="M91.817,17.6c0,5.053-2.828,9.208-6.313,9.208H80.07c-3.494,0-6.376-4.155-6.376-9.208V13.072c0-5.06,2.882-9.211,6.376-9.211H85.5c3.485,0,6.313,4.152,6.313,9.211ZM88.016,0H77.664A12.266,12.266,0,0,0,65.5,12.235v5.957A12.223,12.223,0,0,0,77.664,30.416H88.016a12.236,12.236,0,0,0,12.228-12.223V12.235A12.279,12.279,0,0,0,88.016,0" transform="translate(48.855 0.001)" fill="#1c1a1a"/>
      <path id="Trazado_8987" data-name="Trazado 8987" d="M142.98,13.253h15.783v2.706H142.98v4.209a6.655,6.655,0,0,0,6.634,6.69h9.362v2.886h-15.34a8.253,8.253,0,0,1-8.244-8.244V.3h23.371V3.008H142.98ZM88.123.246h6.57c2.888.239,2.708.9,4.449,3.429l9.943,14.332,9.868-14.332C120.7,1.143,120.513.485,123.4.246h6.566v29.5H123.4V9.7l-14.315,19.39L94.693,9.7V29.745h-6.57Z" transform="translate(65.732 0.184)" fill="#1c1a1a"/>
      <path id="Trazado_8988" data-name="Trazado 8988" d="M154.875,4.118h.363a4.639,4.639,0,0,0,.962-.059.567.567,0,0,0,.293-.21.55.55,0,0,0,.11-.339.565.565,0,0,0-.1-.33.617.617,0,0,0-.3-.206,4.369,4.369,0,0,0-.96-.063h-.363Zm-.9,2.505V2.212h.9c.838,0,1.308.007,1.409.012a1.773,1.773,0,0,1,.691.176,1.086,1.086,0,0,1,.41.426,1.211,1.211,0,0,1,.168.63,1.162,1.162,0,0,1-.314.817,1.4,1.4,0,0,1-.873.417,1.162,1.162,0,0,1,.309.166,2.291,2.291,0,0,1,.3.339c.031.045.14.222.325.538l.52.89h-1.105l-.37-.716A3.043,3.043,0,0,0,155.726,5a.989.989,0,0,0-.618-.185h-.232V6.624Zm1.882-5.564a3.368,3.368,0,0,0-1.645.429,3.076,3.076,0,0,0-1.238,1.231,3.35,3.35,0,0,0-.01,3.343A3.148,3.148,0,0,0,154.2,7.3a3.322,3.322,0,0,0,3.322,0,3.148,3.148,0,0,0,1.233-1.238A3.344,3.344,0,0,0,159.2,4.4a3.379,3.379,0,0,0-.45-1.678,3.063,3.063,0,0,0-1.241-1.231,3.389,3.389,0,0,0-1.646-.429m-.005-.814a4.229,4.229,0,0,1,2.05.533,3.879,3.879,0,0,1,1.543,1.533,4.18,4.18,0,0,1,.01,4.157A3.923,3.923,0,0,1,157.924,8a4.163,4.163,0,0,1-4.136,0,3.907,3.907,0,0,1-1.535-1.535,4.168,4.168,0,0,1,.01-4.157A3.869,3.869,0,0,1,153.807.779a4.229,4.229,0,0,1,2.05-.533" transform="translate(113.157 0.184)" fill="#1c1a1a"/>
      <path id="Trazado_8989" data-name="Trazado 8989" d="M156.36,29.723l-8.545-10.615L139.18,29.723h-7.165L144.14,14.8,132.411.278h7.169l8.176,10.208L155.962.278h7.165L151.4,14.8l12.125,14.924Z" transform="translate(98.472 0.208)" fill="#1c1a1a"/>
    </g>
  </g>
</svg>
